# Blender 3.6.1
# www.blender.org
mtllib ComputerStool_02.mtl
g comptuer_stool_02.001_Cube.010
v -0.130200 0.044026 0.219033
v -0.130200 0.777545 0.219033
v -0.130200 0.044026 0.163129
v -0.130200 0.777545 0.163129
v -0.178184 0.000000 0.219033
v -0.178184 0.821571 0.219033
v -0.178184 0.821571 0.163129
v -0.178184 0.000000 0.163129
v -0.030588 0.044026 0.000000
v -0.030588 0.000000 0.163129
v -0.030588 0.000000 0.219033
v 0.000000 0.044026 0.000000
v -0.030588 0.000000 0.000000
v -0.030588 0.044026 0.163129
v -0.030588 0.044026 0.219033
v 0.000000 0.000000 0.000000
v 0.000000 0.000000 0.163129
v 0.000000 0.000000 0.219033
v 0.000000 0.044026 0.163129
v 0.000000 0.044026 0.219033
v 0.000000 0.821571 0.163129
v 0.000000 0.821571 0.219033
v 0.000000 0.777545 0.163129
v 0.000000 0.777545 0.219033
v -0.178184 0.247627 0.219033
v -0.178184 0.247627 0.163129
v -0.130200 0.247627 0.219033
v -0.130200 0.247627 0.163129
v -0.160843 0.794545 0.161781
v -0.160843 0.794545 0.000000
v 0.000000 0.794545 0.000000
v 0.000000 0.794545 0.161781
v -0.160843 0.742261 0.161781
v -0.160843 0.742261 0.000000
v 0.000000 0.742261 0.161781
v 0.000000 0.742261 0.000000
v -0.143115 0.852520 0.102119
v 0.000000 0.796384 0.000000
v 0.000000 0.866442 0.000000
v -0.142719 0.855555 0.000000
v 0.000000 0.859824 0.101723
v -0.191027 0.823789 0.000000
v -0.166815 0.853615 0.000000
v 0.000000 0.856773 0.132405
v 0.000000 0.826129 0.162496
v -0.191027 0.822061 0.162496
v -0.166792 0.851693 0.131957
v -0.180844 0.793035 0.152312
v -0.191027 0.802970 0.162496
v -0.188044 0.795841 0.159513
v -0.180866 0.794709 0.000000
v -0.191027 0.804200 0.000000
v -0.188051 0.797201 0.000000
v 0.000000 0.806217 0.162496
v 0.000000 0.796722 0.152335
v 0.000000 0.799217 0.159520
v -0.187308 0.834387 0.000000
v -0.175805 0.848563 0.000000
v 0.000000 0.851360 0.143634
v 0.000000 0.836907 0.157837
v -0.187310 0.832666 0.157812
v -0.175736 0.846796 0.143227
v -0.178184 0.313837 0.219033
v -0.130200 0.313837 0.219033
v -0.178184 0.313837 0.163129
v -0.130200 0.313837 0.163129
v -0.140687 0.303349 0.163129
v -0.140687 0.258114 0.163129
v -0.167696 0.258114 0.163129
v -0.167696 0.303349 0.163129
v -0.140687 0.303349 0.000000
v -0.140687 0.258114 0.000000
v -0.167696 0.303349 0.000000
v -0.167696 0.258114 0.000000
v 0.130200 0.044026 0.219033
v 0.130200 0.777545 0.219033
v 0.130200 0.044026 0.163129
v 0.130200 0.777545 0.163129
v 0.178184 0.000000 0.219033
v 0.178184 0.821571 0.219033
v 0.178184 0.821571 0.163129
v 0.178184 0.000000 0.163129
v 0.030588 0.044026 0.000000
v 0.030588 0.000000 0.163129
v 0.030588 0.000000 0.219033
v 0.030588 0.000000 0.000000
v 0.030588 0.044026 0.163129
v 0.030588 0.044026 0.219033
v 0.178184 0.247627 0.219033
v 0.178184 0.247627 0.163129
v 0.130200 0.247627 0.219033
v 0.130200 0.247627 0.163129
v 0.160843 0.794545 0.161781
v 0.160843 0.794545 0.000000
v 0.160843 0.742261 0.161781
v 0.160843 0.742261 0.000000
v 0.143115 0.852520 0.102119
v 0.142719 0.855555 0.000000
v 0.191027 0.823789 0.000000
v 0.166815 0.853615 0.000000
v 0.191027 0.822061 0.162496
v 0.166792 0.851693 0.131957
v 0.180844 0.793035 0.152312
v 0.191027 0.802970 0.162496
v 0.188044 0.795841 0.159513
v 0.180866 0.794709 0.000000
v 0.191027 0.804200 0.000000
v 0.188051 0.797201 0.000000
v 0.187308 0.834387 0.000000
v 0.175805 0.848563 0.000000
v 0.187310 0.832666 0.157812
v 0.175736 0.846796 0.143227
v 0.178184 0.313837 0.219033
v 0.130200 0.313837 0.219033
v 0.178184 0.313837 0.163129
v 0.130200 0.313837 0.163129
v 0.140687 0.303349 0.163129
v 0.140687 0.258114 0.163129
v 0.167696 0.258114 0.163129
v 0.167696 0.303349 0.163129
v 0.140687 0.303349 0.000000
v 0.140687 0.258114 0.000000
v 0.167696 0.303349 0.000000
v 0.167696 0.258114 0.000000
v -0.130200 0.044026 -0.219033
v -0.130200 0.777545 -0.219033
v -0.130200 0.044026 -0.163129
v -0.130200 0.777545 -0.163129
v -0.178184 0.000000 -0.219033
v -0.178184 0.821571 -0.219033
v -0.178184 0.821571 -0.163129
v -0.178184 0.000000 -0.163129
v -0.030588 0.000000 -0.163129
v -0.030588 0.000000 -0.219033
v -0.030588 0.044026 -0.163129
v -0.030588 0.044026 -0.219033
v 0.000000 0.000000 -0.163129
v 0.000000 0.000000 -0.219033
v 0.000000 0.044026 -0.163129
v 0.000000 0.044026 -0.219033
v 0.000000 0.821571 -0.163129
v 0.000000 0.821571 -0.219033
v 0.000000 0.777545 -0.163129
v 0.000000 0.777545 -0.219033
v -0.178184 0.247627 -0.219033
v -0.178184 0.247627 -0.163129
v -0.130200 0.247627 -0.219033
v -0.130200 0.247627 -0.163129
v -0.160843 0.794545 -0.161781
v 0.000000 0.794545 -0.161781
v -0.160843 0.742261 -0.161781
v 0.000000 0.742261 -0.161781
v -0.143115 0.852520 -0.102119
v 0.000000 0.859824 -0.101723
v 0.000000 0.856773 -0.132405
v 0.000000 0.826129 -0.162496
v -0.191027 0.822061 -0.162496
v -0.166792 0.851693 -0.131957
v -0.180844 0.793035 -0.152312
v -0.191027 0.802970 -0.162496
v -0.188044 0.795841 -0.159513
v 0.000000 0.806217 -0.162496
v 0.000000 0.796722 -0.152335
v 0.000000 0.799217 -0.159520
v 0.000000 0.851360 -0.143634
v 0.000000 0.836907 -0.157837
v -0.187310 0.832666 -0.157812
v -0.175736 0.846796 -0.143227
v -0.178184 0.313837 -0.219033
v -0.130200 0.313837 -0.219033
v -0.178184 0.313837 -0.163129
v -0.130200 0.313837 -0.163129
v -0.140687 0.303349 -0.163129
v -0.140687 0.258114 -0.163129
v -0.167696 0.258114 -0.163129
v -0.167696 0.303349 -0.163129
v 0.130200 0.044026 -0.219033
v 0.130200 0.777545 -0.219033
v 0.130200 0.044026 -0.163129
v 0.130200 0.777545 -0.163129
v 0.178184 0.000000 -0.219033
v 0.178184 0.821571 -0.219033
v 0.178184 0.821571 -0.163129
v 0.178184 0.000000 -0.163129
v 0.030588 0.000000 -0.163129
v 0.030588 0.000000 -0.219033
v 0.030588 0.044026 -0.163129
v 0.030588 0.044026 -0.219033
v 0.178184 0.247627 -0.219033
v 0.178184 0.247627 -0.163129
v 0.130200 0.247627 -0.219033
v 0.130200 0.247627 -0.163129
v 0.160843 0.794545 -0.161781
v 0.160843 0.742261 -0.161781
v 0.143115 0.852520 -0.102119
v 0.191027 0.822061 -0.162496
v 0.166792 0.851693 -0.131957
v 0.180844 0.793035 -0.152312
v 0.191027 0.802970 -0.162496
v 0.188044 0.795841 -0.159513
v 0.187310 0.832666 -0.157812
v 0.175736 0.846796 -0.143227
v 0.178184 0.313837 -0.219033
v 0.130200 0.313837 -0.219033
v 0.178184 0.313837 -0.163129
v 0.130200 0.313837 -0.163129
v 0.140687 0.303349 -0.163129
v 0.140687 0.258114 -0.163129
v 0.167696 0.258114 -0.163129
v 0.167696 0.303349 -0.163129
vn -1.0000 -0.0000 -0.0000
vn -0.0000 1.0000 -0.0000
vn -0.0000 -0.0000 1.0000
vn -0.0000 -0.0000 -1.0000
vn 1.0000 -0.0000 -0.0000
vn -0.0000 -1.0000 -0.0000
vn -0.0541 0.9985 -0.0000
vn -0.0476 0.9982 0.0373
vn -0.0000 0.9989 0.0478
vn -0.6838 0.2248 0.6941
vn -0.6857 -0.2418 0.6866
vn -0.0000 -0.1955 0.9807
vn -0.0000 0.2079 0.9782
vn -0.2161 0.9621 0.1665
vn -0.0000 0.9728 0.2315
vn -0.0000 -0.9840 0.1780
vn -0.1241 -0.9835 0.1316
vn -0.1706 -0.9853 -0.0000
vn -0.5747 0.6048 0.5514
vn -0.8710 0.4913 -0.0000
vn -0.9856 0.1693 -0.0000
vn -0.4092 0.8397 0.3571
vn -0.0000 0.8271 0.5620
vn -0.0000 0.5696 0.8219
vn -0.2684 0.9633 -0.0000
vn -0.9804 -0.1970 -0.0000
vn -0.6934 -0.7206 -0.0000
vn -0.4861 -0.7244 0.4888
vn -0.0000 -0.7177 0.6964
vn -0.6373 0.7706 -0.0000
vn 0.0476 0.9982 0.0373
vn 0.0541 0.9985 -0.0000
vn 0.6838 0.2248 0.6941
vn 0.6857 -0.2418 0.6866
vn 0.2161 0.9621 0.1665
vn 0.1706 -0.9853 -0.0000
vn 0.1241 -0.9835 0.1316
vn 0.5747 0.6048 0.5514
vn 0.9856 0.1693 -0.0000
vn 0.8710 0.4913 -0.0000
vn 0.4092 0.8397 0.3571
vn 0.2684 0.9633 -0.0000
vn 0.4861 -0.7244 0.4888
vn 0.6934 -0.7206 -0.0000
vn 0.9804 -0.1970 -0.0000
vn 0.6373 0.7706 -0.0000
vn -0.0000 0.9989 -0.0478
vn -0.0476 0.9982 -0.0373
vn -0.6838 0.2248 -0.6941
vn -0.0000 0.2079 -0.9782
vn -0.0000 -0.1955 -0.9807
vn -0.6857 -0.2418 -0.6866
vn -0.0000 0.9728 -0.2315
vn -0.2161 0.9621 -0.1665
vn -0.1241 -0.9835 -0.1316
vn -0.0000 -0.9840 -0.1780
vn -0.5747 0.6048 -0.5514
vn -0.0000 0.8271 -0.5620
vn -0.4092 0.8397 -0.3571
vn -0.0000 0.5696 -0.8219
vn -0.4861 -0.7244 -0.4888
vn -0.0000 -0.7177 -0.6964
vn 0.0476 0.9982 -0.0373
vn 0.6838 0.2248 -0.6941
vn 0.6857 -0.2418 -0.6866
vn 0.2161 0.9621 -0.1665
vn 0.1241 -0.9835 -0.1316
vn 0.5747 0.6048 -0.5514
vn 0.4092 0.8397 -0.3571
vn 0.4861 -0.7244 -0.4888
vt 0.530782 0.000000
vt 0.625000 0.000000
vt 0.625000 0.250000
vt 0.530782 0.250000
vt 0.750000 0.500000
vt 0.875000 0.500000
vt 0.875000 0.750000
vt 0.750000 0.750000
vt 0.521981 0.964260
vt 0.589260 0.964260
vt 0.625000 1.000000
vt 0.530782 1.000000
vt 0.500000 0.285740
vt 0.410740 0.285740
vt 0.375000 0.250000
vt 0.500000 0.250000
vt 0.589260 0.375000
vt 0.589260 0.285740
vt 0.625000 0.375000
vt 0.410740 0.904753
vt 0.410740 0.964260
vt 0.375000 1.000000
vt 0.375000 0.916667
vt 0.410740 0.345247
vt 0.521981 0.285740
vt 0.410740 0.375000
vt 0.410740 0.875000
vt 0.375000 0.875000
vt 0.375000 0.333333
vt 0.125000 0.500000
vt 0.208333 0.500000
vt 0.208333 0.750000
vt 0.125000 0.750000
vt 0.250000 0.500000
vt 0.250000 0.750000
vt 0.589260 0.875000
vt 0.625000 0.875000
vt 0.500000 0.964260
vt 0.502350 0.277929
vt 0.502655 0.257811
vt 0.500000 1.000000
vt 0.375000 0.000000
vt 0.500000 0.000000
vt 0.764536 0.534050
vt 0.860466 0.534471
vt 0.860351 0.715530
vt 0.764650 0.715953
vt 0.867590 0.732564
vt 0.757254 0.733142
vt 0.750000 0.734367
vt 0.868340 0.734338
vt 0.868351 0.500000
vt 0.873824 0.746441
vt 0.875000 0.500083
vt 0.870285 0.738117
vt 0.753496 0.742038
vt 0.750071 0.750000
vt 0.867716 0.517277
vt 0.874007 0.747688
vt 0.871540 0.508289
vt 0.521554 0.277929
vt 0.526203 0.257811
s 0
usemtl Material.007
f 63/1/1 6/2/1 7/3/1 65/4/1
f 21/5/2 7/6/2 6/7/2 22/8/2
f 64/9/3 2/10/3 6/11/3 63/12/3
f 28/13/4 3/14/4 8/15/4 26/16/4
f 23/17/4 4/18/4 7/3/4 21/19/4
f 15/20/3 1/21/3 5/22/3 11/23/3
f 14/24/2 3/14/2 1/21/2 15/20/2
f 66/25/5 4/18/5 2/10/5 64/9/5
f 19/26/2 14/24/2 15/20/2 20/27/2
f 20/27/3 15/20/3 11/23/3 18/28/3
f 3/14/4 14/24/4 10/29/4 8/15/4
f 10/29/1 14/24/1 9/24/1 13/29/1
f 8/30/6 10/31/6 11/32/6 5/33/6
f 10/31/6 17/34/6 18/35/6 11/32/6
f 14/24/2 19/26/2 12/26/2 9/24/2
f 17/34/6 10/31/6 13/31/6 16/34/6
f 2/10/3 24/36/3 22/37/3 6/11/3
f 4/18/6 23/17/6 24/36/6 2/10/6
f 3/14/5 28/13/5 27/38/5 1/21/5
f 68/39/6 69/40/6 74/40/6 72/39/6
f 1/21/3 27/38/3 25/41/3 5/22/3
f 5/42/1 25/43/1 26/16/1 8/15/1
f 31/5/6 32/8/6 29/7/6 30/6/6
f 36/5/2 34/6/2 33/7/2 35/8/2
f 30/6/5 29/7/5 33/7/5 34/6/5
f 29/7/4 32/8/4 35/8/4 33/7/4
s 1
f 39/44/2 40/45/7 37/46/8 41/47/9
f 46/7/10 49/7/11 54/8/12 45/8/13
f 41/47/9 37/46/8 47/48/14 44/49/15
f 38/5/6 55/50/16 48/51/17 51/52/18
f 61/53/19 57/54/20 42/6/21 46/7/10
f 44/49/15 47/48/14 62/55/22 59/56/23
f 60/57/24 61/53/19 46/7/10 45/8/13
f 37/46/8 40/45/7 43/58/25 47/48/14
f 49/7/11 52/6/26 53/6/27 50/59/28
f 50/59/28 53/6/27 51/52/18 48/51/17
f 54/8/12 49/7/11 50/59/28 56/8/29
f 56/8/29 50/59/28 48/51/17 55/50/16
f 42/6/21 52/6/26 49/7/11 46/7/10
f 57/54/20 61/53/19 62/55/22 58/60/30
f 61/53/19 60/57/24 59/56/23 62/55/22
f 47/48/14 43/58/25 58/60/30 62/55/22
s 0
f 4/18/4 66/25/4 65/4/4 7/3/4
f 28/13/5 66/25/5 64/9/5 27/38/5
f 27/38/3 64/9/3 63/12/3 25/41/3
f 25/43/1 63/1/1 65/4/1 26/16/1
f 66/25/4 28/13/4 68/39/4 67/61/4
f 28/13/4 26/16/4 69/40/4 68/39/4
f 26/16/4 65/4/4 70/62/4 69/40/4
f 65/4/4 66/25/4 67/61/4 70/62/4
f 67/61/5 68/39/5 72/39/5 71/61/5
f 69/40/1 70/62/1 73/62/1 74/40/1
f 70/62/2 67/61/2 71/61/2 73/62/2
f 113/1/5 115/4/5 81/3/5 80/2/5
f 21/5/2 22/8/2 80/7/2 81/6/2
f 114/9/3 113/12/3 80/11/3 76/10/3
f 92/13/4 90/16/4 82/15/4 77/14/4
f 23/17/4 21/19/4 81/3/4 78/18/4
f 88/20/3 85/23/3 79/22/3 75/21/3
f 87/24/2 88/20/2 75/21/2 77/14/2
f 116/25/1 114/9/1 76/10/1 78/18/1
f 19/26/2 20/27/2 88/20/2 87/24/2
f 20/27/3 18/28/3 85/23/3 88/20/3
f 77/14/4 82/15/4 84/29/4 87/24/4
f 84/29/5 86/29/5 83/24/5 87/24/5
f 82/30/6 79/33/6 85/32/6 84/31/6
f 84/31/6 85/32/6 18/35/6 17/34/6
f 87/24/2 83/24/2 12/26/2 19/26/2
f 17/34/6 16/34/6 86/31/6 84/31/6
f 76/10/3 80/11/3 22/37/3 24/36/3
f 78/18/6 76/10/6 24/36/6 23/17/6
f 77/14/1 75/21/1 91/38/1 92/13/1
f 118/39/6 122/39/6 124/40/6 119/40/6
f 75/21/3 79/22/3 89/41/3 91/38/3
f 79/42/5 82/15/5 90/16/5 89/43/5
f 31/5/6 94/6/6 93/7/6 32/8/6
f 36/5/2 35/8/2 95/7/2 96/6/2
f 94/6/1 96/6/1 95/7/1 93/7/1
f 93/7/4 95/7/4 35/8/4 32/8/4
s 1
f 39/44/2 41/47/9 97/46/31 98/45/32
f 101/7/33 45/8/13 54/8/12 104/7/34
f 41/47/9 44/49/15 102/48/35 97/46/31
f 38/5/6 106/52/36 103/51/37 55/50/16
f 111/53/38 101/7/33 99/6/39 109/54/40
f 44/49/15 59/56/23 112/55/41 102/48/35
f 60/57/24 45/8/13 101/7/33 111/53/38
f 97/46/31 102/48/35 100/58/42 98/45/32
f 104/7/34 105/59/43 108/6/44 107/6/45
f 105/59/43 103/51/37 106/52/36 108/6/44
f 54/8/12 56/8/29 105/59/43 104/7/34
f 56/8/29 55/50/16 103/51/37 105/59/43
f 99/6/39 101/7/33 104/7/34 107/6/45
f 109/54/40 110/60/46 112/55/41 111/53/38
f 111/53/38 112/55/41 59/56/23 60/57/24
f 102/48/35 112/55/41 110/60/46 100/58/42
s 0
f 78/18/4 81/3/4 115/4/4 116/25/4
f 92/13/1 91/38/1 114/9/1 116/25/1
f 91/38/3 89/41/3 113/12/3 114/9/3
f 89/43/5 90/16/5 115/4/5 113/1/5
f 116/25/4 117/61/4 118/39/4 92/13/4
f 92/13/4 118/39/4 119/40/4 90/16/4
f 90/16/4 119/40/4 120/62/4 115/4/4
f 115/4/4 120/62/4 117/61/4 116/25/4
f 117/61/1 121/61/1 122/39/1 118/39/1
f 119/40/5 124/40/5 123/62/5 120/62/5
f 120/62/2 123/62/2 121/61/2 117/61/2
f 169/1/1 171/4/1 131/3/1 130/2/1
f 141/5/2 142/8/2 130/7/2 131/6/2
f 170/9/4 169/12/4 130/11/4 126/10/4
f 148/13/3 146/16/3 132/15/3 127/14/3
f 143/17/3 141/19/3 131/3/3 128/18/3
f 136/20/4 134/23/4 129/22/4 125/21/4
f 135/24/2 136/20/2 125/21/2 127/14/2
f 172/25/5 170/9/5 126/10/5 128/18/5
f 139/26/2 140/27/2 136/20/2 135/24/2
f 140/27/4 138/28/4 134/23/4 136/20/4
f 127/14/3 132/15/3 133/29/3 135/24/3
f 133/29/1 13/29/1 9/24/1 135/24/1
f 132/30/6 129/33/6 134/32/6 133/31/6
f 133/31/6 134/32/6 138/35/6 137/34/6
f 135/24/2 9/24/2 12/26/2 139/26/2
f 137/34/6 16/34/6 13/31/6 133/31/6
f 126/10/4 130/11/4 142/37/4 144/36/4
f 128/18/6 126/10/6 144/36/6 143/17/6
f 127/14/5 125/21/5 147/38/5 148/13/5
f 174/39/6 72/39/6 74/40/6 175/40/6
f 125/21/4 129/22/4 145/41/4 147/38/4
f 129/42/1 132/15/1 146/16/1 145/43/1
f 31/5/6 30/6/6 149/7/6 150/8/6
f 36/5/2 152/8/2 151/7/2 34/6/2
f 30/6/5 34/6/5 151/7/5 149/7/5
f 149/7/3 151/7/3 152/8/3 150/8/3
s 1
f 39/44/2 154/47/47 153/46/48 40/45/7
f 157/7/49 156/8/50 162/8/51 160/7/52
f 154/47/47 155/49/53 158/48/54 153/46/48
f 38/5/6 51/52/18 159/51/55 163/50/56
f 167/53/57 157/7/49 42/6/21 57/54/20
f 155/49/53 165/56/58 168/55/59 158/48/54
f 166/57/60 156/8/50 157/7/49 167/53/57
f 153/46/48 158/48/54 43/58/25 40/45/7
f 160/7/52 161/59/61 53/6/27 52/6/26
f 161/59/61 159/51/55 51/52/18 53/6/27
f 162/8/51 164/8/62 161/59/61 160/7/52
f 164/8/62 163/50/56 159/51/55 161/59/61
f 42/6/21 157/7/49 160/7/52 52/6/26
f 57/54/20 58/60/30 168/55/59 167/53/57
f 167/53/57 168/55/59 165/56/58 166/57/60
f 158/48/54 168/55/59 58/60/30 43/58/25
s 0
f 128/18/3 131/3/3 171/4/3 172/25/3
f 148/13/5 147/38/5 170/9/5 172/25/5
f 147/38/4 145/41/4 169/12/4 170/9/4
f 145/43/1 146/16/1 171/4/1 169/1/1
f 172/25/3 173/61/3 174/39/3 148/13/3
f 148/13/3 174/39/3 175/40/3 146/16/3
f 146/16/3 175/40/3 176/62/3 171/4/3
f 171/4/3 176/62/3 173/61/3 172/25/3
f 173/61/5 71/61/5 72/39/5 174/39/5
f 175/40/1 74/40/1 73/62/1 176/62/1
f 176/62/2 73/62/2 71/61/2 173/61/2
f 203/1/5 182/2/5 183/3/5 205/4/5
f 141/5/2 183/6/2 182/7/2 142/8/2
f 204/9/4 178/10/4 182/11/4 203/12/4
f 192/13/3 179/14/3 184/15/3 190/16/3
f 143/17/3 180/18/3 183/3/3 141/19/3
f 188/20/4 177/21/4 181/22/4 186/23/4
f 187/24/2 179/14/2 177/21/2 188/20/2
f 206/25/1 180/18/1 178/10/1 204/9/1
f 139/26/2 187/24/2 188/20/2 140/27/2
f 140/27/4 188/20/4 186/23/4 138/28/4
f 179/14/3 187/24/3 185/29/3 184/15/3
f 185/29/5 187/24/5 83/24/5 86/29/5
f 184/30/6 185/31/6 186/32/6 181/33/6
f 185/31/6 137/34/6 138/35/6 186/32/6
f 187/24/2 139/26/2 12/26/2 83/24/2
f 137/34/6 185/31/6 86/31/6 16/34/6
f 178/10/4 144/36/4 142/37/4 182/11/4
f 180/18/6 143/17/6 144/36/6 178/10/6
f 179/14/1 192/13/1 191/38/1 177/21/1
f 208/39/6 209/40/6 124/40/6 122/39/6
f 177/21/4 191/38/4 189/41/4 181/22/4
f 181/42/5 189/43/5 190/16/5 184/15/5
f 31/5/6 150/8/6 193/7/6 94/6/6
f 36/5/2 96/6/2 194/7/2 152/8/2
f 94/6/1 193/7/1 194/7/1 96/6/1
f 193/7/3 150/8/3 152/8/3 194/7/3
s 1
f 39/44/2 98/45/32 195/46/63 154/47/47
f 196/7/64 199/7/65 162/8/51 156/8/50
f 154/47/47 195/46/63 197/48/66 155/49/53
f 38/5/6 163/50/56 198/51/67 106/52/36
f 201/53/68 109/54/40 99/6/39 196/7/64
f 155/49/53 197/48/66 202/55/69 165/56/58
f 166/57/60 201/53/68 196/7/64 156/8/50
f 195/46/63 98/45/32 100/58/42 197/48/66
f 199/7/65 107/6/45 108/6/44 200/59/70
f 200/59/70 108/6/44 106/52/36 198/51/67
f 162/8/51 199/7/65 200/59/70 164/8/62
f 164/8/62 200/59/70 198/51/67 163/50/56
f 99/6/39 107/6/45 199/7/65 196/7/64
f 109/54/40 201/53/68 202/55/69 110/60/46
f 201/53/68 166/57/60 165/56/58 202/55/69
f 197/48/66 100/58/42 110/60/46 202/55/69
s 0
f 180/18/3 206/25/3 205/4/3 183/3/3
f 192/13/1 206/25/1 204/9/1 191/38/1
f 191/38/4 204/9/4 203/12/4 189/41/4
f 189/43/5 203/1/5 205/4/5 190/16/5
f 206/25/3 192/13/3 208/39/3 207/61/3
f 192/13/3 190/16/3 209/40/3 208/39/3
f 190/16/3 205/4/3 210/62/3 209/40/3
f 205/4/3 206/25/3 207/61/3 210/62/3
f 207/61/1 208/39/1 122/39/1 121/61/1
f 209/40/5 210/62/5 123/62/5 124/40/5
f 210/62/2 207/61/2 121/61/2 123/62/2
