# Blender 3.6.1
# www.blender.org
mtllib ComputerStool_01.mtl
g comptuer_stool_01.001_Cube.006
v -0.130200 0.043550 0.219033
v -0.130200 0.392749 0.219033
v -0.130200 0.043550 0.163129
v -0.130200 0.392749 0.163129
v -0.178184 -0.000476 0.219033
v -0.178184 0.436776 0.219033
v -0.178184 0.436776 0.163129
v -0.178184 -0.000476 0.163129
v -0.030588 0.043550 0.000000
v -0.030588 -0.000476 0.163129
v -0.030588 -0.000476 0.219033
v 0.000000 0.043550 0.000000
v -0.030588 -0.000476 0.000000
v -0.030588 0.043550 0.163129
v -0.030588 0.043550 0.219033
v 0.000000 -0.000476 0.000000
v 0.000000 -0.000476 0.163129
v 0.000000 -0.000476 0.219033
v 0.000000 0.043550 0.163129
v 0.000000 0.043550 0.219033
v 0.000000 0.436776 0.163129
v 0.000000 0.436776 0.219033
v 0.000000 0.392749 0.163129
v 0.000000 0.392749 0.219033
v -0.178184 0.153504 0.219033
v -0.178184 0.153504 0.163129
v -0.130200 0.153504 0.219033
v -0.130200 0.153504 0.163129
v -0.160843 0.409749 0.161781
v -0.160843 0.409749 0.000000
v 0.000000 0.409749 0.000000
v 0.000000 0.409749 0.161781
v -0.160843 0.357466 0.161781
v -0.160843 0.357466 0.000000
v 0.000000 0.357466 0.161781
v 0.000000 0.357466 0.000000
v -0.143115 0.467725 0.102119
v 0.000000 0.411588 0.000000
v 0.000000 0.481647 0.000000
v -0.142719 0.470760 0.000000
v 0.000000 0.475029 0.101723
v -0.191027 0.438994 0.000000
v -0.166815 0.468819 0.000000
v 0.000000 0.471977 0.132405
v 0.000000 0.441334 0.162496
v -0.191027 0.437266 0.162496
v -0.166792 0.466897 0.131957
v -0.180844 0.408239 0.152312
v -0.191027 0.418174 0.162496
v -0.188044 0.411046 0.159513
v -0.180866 0.409914 0.000000
v -0.191027 0.419405 0.000000
v -0.188051 0.412406 0.000000
v 0.000000 0.421422 0.162496
v 0.000000 0.411927 0.152335
v 0.000000 0.414422 0.159520
v -0.187308 0.449591 0.000000
v -0.175805 0.463768 0.000000
v 0.000000 0.466565 0.143634
v 0.000000 0.452112 0.157837
v -0.187310 0.447871 0.157812
v -0.175736 0.462001 0.143227
v 0.130200 0.043550 0.219033
v 0.130200 0.392749 0.219033
v 0.130200 0.043550 0.163129
v 0.130200 0.392749 0.163129
v 0.178184 -0.000476 0.219033
v 0.178184 0.436776 0.219033
v 0.178184 0.436776 0.163129
v 0.178184 -0.000476 0.163129
v 0.030588 0.043550 0.000000
v 0.030588 -0.000476 0.163129
v 0.030588 -0.000476 0.219033
v 0.030588 -0.000476 0.000000
v 0.030588 0.043550 0.163129
v 0.030588 0.043550 0.219033
v 0.178184 0.153504 0.219033
v 0.178184 0.153504 0.163129
v 0.130200 0.153504 0.219033
v 0.130200 0.153504 0.163129
v 0.160843 0.409749 0.161781
v 0.160843 0.409749 0.000000
v 0.160843 0.357466 0.161781
v 0.160843 0.357466 0.000000
v 0.143115 0.467725 0.102119
v 0.142719 0.470760 0.000000
v 0.191027 0.438994 0.000000
v 0.166815 0.468819 0.000000
v 0.191027 0.437266 0.162496
v 0.166792 0.466897 0.131957
v 0.180844 0.408239 0.152312
v 0.191027 0.418174 0.162496
v 0.188044 0.411046 0.159513
v 0.180866 0.409914 0.000000
v 0.191027 0.419405 0.000000
v 0.188051 0.412406 0.000000
v 0.187308 0.449591 0.000000
v 0.175805 0.463768 0.000000
v 0.187310 0.447871 0.157812
v 0.175736 0.462001 0.143227
v -0.130200 0.043550 -0.219033
v -0.130200 0.392749 -0.219033
v -0.130200 0.043550 -0.163129
v -0.130200 0.392749 -0.163129
v -0.178184 -0.000476 -0.219033
v -0.178184 0.436776 -0.219033
v -0.178184 0.436776 -0.163129
v -0.178184 -0.000476 -0.163129
v -0.030588 -0.000476 -0.163129
v -0.030588 -0.000476 -0.219033
v -0.030588 0.043550 -0.163129
v -0.030588 0.043550 -0.219033
v 0.000000 -0.000476 -0.163129
v 0.000000 -0.000476 -0.219033
v 0.000000 0.043550 -0.163129
v 0.000000 0.043550 -0.219033
v 0.000000 0.436776 -0.163129
v 0.000000 0.436776 -0.219033
v 0.000000 0.392749 -0.163129
v 0.000000 0.392749 -0.219033
v -0.178184 0.153504 -0.219033
v -0.178184 0.153504 -0.163129
v -0.130200 0.153504 -0.219033
v -0.130200 0.153504 -0.163129
v -0.160843 0.409749 -0.161781
v 0.000000 0.409749 -0.161781
v -0.160843 0.357466 -0.161781
v 0.000000 0.357466 -0.161781
v -0.143115 0.467725 -0.102119
v 0.000000 0.475029 -0.101723
v 0.000000 0.471977 -0.132405
v 0.000000 0.441334 -0.162496
v -0.191027 0.437266 -0.162496
v -0.166792 0.466897 -0.131957
v -0.180844 0.408239 -0.152312
v -0.191027 0.418174 -0.162496
v -0.188044 0.411046 -0.159513
v 0.000000 0.421422 -0.162496
v 0.000000 0.411927 -0.152335
v 0.000000 0.414422 -0.159520
v 0.000000 0.466565 -0.143634
v 0.000000 0.452112 -0.157837
v -0.187310 0.447871 -0.157812
v -0.175736 0.462001 -0.143227
v 0.130200 0.043550 -0.219033
v 0.130200 0.392749 -0.219033
v 0.130200 0.043550 -0.163129
v 0.130200 0.392749 -0.163129
v 0.178184 -0.000476 -0.219033
v 0.178184 0.436776 -0.219033
v 0.178184 0.436776 -0.163129
v 0.178184 -0.000476 -0.163129
v 0.030588 -0.000476 -0.163129
v 0.030588 -0.000476 -0.219033
v 0.030588 0.043550 -0.163129
v 0.030588 0.043550 -0.219033
v 0.178184 0.153504 -0.219033
v 0.178184 0.153504 -0.163129
v 0.130200 0.153504 -0.219033
v 0.130200 0.153504 -0.163129
v 0.160843 0.409749 -0.161781
v 0.160843 0.357466 -0.161781
v 0.143115 0.467725 -0.102119
v 0.191027 0.437266 -0.162496
v 0.166792 0.466897 -0.131957
v 0.180844 0.408239 -0.152312
v 0.191027 0.418174 -0.162496
v 0.188044 0.411046 -0.159513
v 0.187310 0.447871 -0.157812
v 0.175736 0.462001 -0.143227
vn -1.0000 -0.0000 -0.0000
vn -0.0000 1.0000 -0.0000
vn -0.0000 -0.0000 1.0000
vn -0.0000 -0.0000 -1.0000
vn 1.0000 -0.0000 -0.0000
vn -0.0000 -1.0000 -0.0000
vn -0.0541 0.9985 -0.0000
vn -0.0476 0.9982 0.0373
vn -0.0000 0.9989 0.0478
vn -0.6838 0.2248 0.6941
vn -0.6857 -0.2418 0.6866
vn -0.0000 -0.1955 0.9807
vn -0.0000 0.2079 0.9782
vn -0.2161 0.9621 0.1665
vn -0.0000 0.9728 0.2315
vn -0.0000 -0.9840 0.1780
vn -0.1241 -0.9835 0.1316
vn -0.1706 -0.9853 -0.0000
vn -0.5747 0.6048 0.5514
vn -0.8710 0.4913 -0.0000
vn -0.9856 0.1693 -0.0000
vn -0.4092 0.8397 0.3571
vn -0.0000 0.8271 0.5620
vn -0.0000 0.5696 0.8219
vn -0.2684 0.9633 -0.0000
vn -0.9804 -0.1970 -0.0000
vn -0.6934 -0.7206 -0.0000
vn -0.4861 -0.7244 0.4888
vn -0.0000 -0.7177 0.6964
vn -0.6373 0.7706 -0.0000
vn 0.0476 0.9982 0.0373
vn 0.0541 0.9985 -0.0000
vn 0.6838 0.2248 0.6941
vn 0.6857 -0.2418 0.6866
vn 0.2161 0.9621 0.1665
vn 0.1706 -0.9853 -0.0000
vn 0.1241 -0.9835 0.1316
vn 0.5747 0.6048 0.5514
vn 0.9856 0.1693 -0.0000
vn 0.8710 0.4913 -0.0000
vn 0.4092 0.8397 0.3571
vn 0.2684 0.9633 -0.0000
vn 0.4861 -0.7244 0.4888
vn 0.6934 -0.7206 -0.0000
vn 0.9804 -0.1970 -0.0000
vn 0.6373 0.7706 -0.0000
vn -0.0000 0.9989 -0.0478
vn -0.0476 0.9982 -0.0373
vn -0.6838 0.2248 -0.6941
vn -0.0000 0.2079 -0.9782
vn -0.0000 -0.1955 -0.9807
vn -0.6857 -0.2418 -0.6866
vn -0.0000 0.9728 -0.2315
vn -0.2161 0.9621 -0.1665
vn -0.1241 -0.9835 -0.1316
vn -0.0000 -0.9840 -0.1780
vn -0.5747 0.6048 -0.5514
vn -0.0000 0.8271 -0.5620
vn -0.4092 0.8397 -0.3571
vn -0.0000 0.5696 -0.8219
vn -0.4861 -0.7244 -0.4888
vn -0.0000 -0.7177 -0.6964
vn 0.0476 0.9982 -0.0373
vn 0.6838 0.2248 -0.6941
vn 0.6857 -0.2418 -0.6866
vn 0.2161 0.9621 -0.1665
vn 0.1241 -0.9835 -0.1316
vn 0.5747 0.6048 -0.5514
vn 0.4092 0.8397 -0.3571
vn 0.4861 -0.7244 -0.4888
vt 0.000253 0.771064
vt 0.000253 0.597092
vt 0.034587 0.597092
vt 0.034587 0.771064
vt 0.034587 0.487659
vt 0.000253 0.487659
vt 0.723728 0.692549
vt 0.723728 0.881935
vt 0.685744 0.916786
vt 0.685744 0.692549
vt 0.513454 0.352450
vt 0.580983 0.352450
vt 0.608022 0.381919
vt 0.513454 0.381919
vt 0.366520 0.272487
vt 0.366520 0.352450
vt 0.339481 0.381919
vt 0.339481 0.272487
vt 0.802580 0.605508
vt 0.723728 0.605509
vt 0.685744 0.570657
vt 0.802580 0.570657
vt 0.104268 0.393428
vt 0.104268 0.454605
vt 0.069934 0.454605
vt 0.069934 0.393428
vt 0.104268 0.522135
vt 0.104268 0.669068
vt 0.069934 0.669068
vt 0.069934 0.522135
vt 0.104268 0.374642
vt 0.069934 0.374642
vt 0.826794 0.605508
vt 0.826794 0.570657
vt 0.580983 0.291273
vt 0.608022 0.291273
vt 0.580983 0.191086
vt 0.608022 0.191086
vt 0.034587 0.865632
vt 0.034587 0.956279
vt 0.000253 0.956279
vt 0.000253 0.865632
vt 0.034587 0.975065
vt 0.000253 0.975065
vt 0.204454 0.374642
vt 0.204454 0.393428
vt 0.846685 0.489920
vt 0.827899 0.489920
vt 0.827899 0.389733
vt 0.846685 0.389733
vt 0.826794 0.881935
vt 0.826794 0.916786
vt 0.104268 0.749031
vt 0.069934 0.749031
vt 0.196308 0.826695
vt 0.196308 0.923442
vt 0.100122 0.923442
vt 0.100122 0.826695
vt 0.757733 0.902968
vt 0.853919 0.902968
vt 0.853919 0.999715
vt 0.757733 0.999715
vt 0.068286 0.097032
vt 0.068286 0.000285
vt 0.099552 0.000285
vt 0.099552 0.097032
vt 0.068286 0.772016
vt 0.068286 0.675830
vt 0.099552 0.675830
vt 0.099553 0.772016
vt 0.736072 0.144647
vt 0.749755 0.055900
vt 0.808903 0.069611
vt 0.800909 0.154644
vt 0.851952 0.044434
vt 0.863616 0.035963
vt 0.863616 0.164312
vt 0.849108 0.162075
vt 0.826686 0.060188
vt 0.820290 0.157632
vt 0.178009 0.874642
vt 0.276240 0.883964
vt 0.256690 0.989695
vt 0.167065 0.989966
vt 0.845140 0.049089
vt 0.754932 0.022328
vt 0.756102 0.014737
vt 0.833855 0.056139
vt 0.827936 0.158811
vt 0.841225 0.160860
vt 0.752097 0.040715
vt 0.264286 0.998717
vt 0.166137 0.999747
vt 0.166628 0.994568
vt 0.260485 0.994212
vt 0.286085 0.884898
vt 0.280876 0.884404
vt 0.758335 0.000253
vt 0.753073 0.034386
vt 0.000253 0.204254
vt 0.034587 0.204254
vt 0.034587 0.378226
vt 0.000253 0.378226
vt 0.929861 0.692549
vt 0.967845 0.692549
vt 0.967845 0.916786
vt 0.929861 0.881935
vt 0.513454 0.411895
vt 0.513454 0.382425
vt 0.608022 0.382425
vt 0.580983 0.411895
vt 0.366520 0.491858
vt 0.339481 0.491858
vt 0.339481 0.382425
vt 0.366520 0.411895
vt 0.851008 0.605508
vt 0.851008 0.570657
vt 0.967845 0.570657
vt 0.929861 0.605508
vt 0.104268 0.355856
vt 0.069934 0.355856
vt 0.069934 0.294679
vt 0.104268 0.294679
vt 0.104268 0.227150
vt 0.069934 0.227150
vt 0.069934 0.080216
vt 0.104268 0.080216
vt 0.608022 0.473072
vt 0.580983 0.473072
vt 0.608022 0.573259
vt 0.580983 0.573259
vt 0.034587 0.109686
vt 0.000253 0.109686
vt 0.000253 0.019039
vt 0.034587 0.019039
vt 0.000253 0.000253
vt 0.034587 0.000253
vt 0.204454 0.355856
vt 0.865471 0.389733
vt 0.865471 0.489920
vt 0.069934 0.000253
vt 0.104268 0.000253
vt 0.292493 0.826695
vt 0.292493 0.923442
vt 0.661547 0.999715
vt 0.661547 0.902968
vt 0.068286 0.482897
vt 0.099552 0.482897
vt 0.099552 0.579644
vt 0.068286 0.579644
vt 0.782918 0.238136
vt 0.722389 0.233394
vt 0.816386 0.275110
vt 0.824956 0.286700
vt 0.797038 0.252477
vt 0.188953 0.759318
vt 0.276927 0.776443
vt 0.811292 0.268619
vt 0.716042 0.274557
vt 0.717212 0.266965
vt 0.802655 0.258497
vt 0.720047 0.248579
vt 0.286085 0.769011
vt 0.281504 0.772721
vt 0.189390 0.754716
vt 0.189881 0.749538
vt 0.713809 0.289041
vt 0.719072 0.254907
vt 0.069428 0.771064
vt 0.035093 0.771064
vt 0.035093 0.597091
vt 0.069428 0.597091
vt 0.035093 0.487659
vt 0.069428 0.487659
vt 0.929231 0.692545
vt 0.967215 0.692545
vt 0.967215 0.916783
vt 0.929231 0.881932
vt 0.513454 0.029723
vt 0.513454 0.000253
vt 0.608022 0.000253
vt 0.580983 0.029723
vt 0.366520 0.109686
vt 0.339481 0.109686
vt 0.339481 0.000253
vt 0.366520 0.029723
vt 0.850378 0.605505
vt 0.850378 0.570654
vt 0.967215 0.570654
vt 0.929231 0.605505
vt 0.304641 0.393428
vt 0.338975 0.393428
vt 0.338975 0.454605
vt 0.304641 0.454605
vt 0.304641 0.522135
vt 0.338975 0.522135
vt 0.338975 0.669068
vt 0.304641 0.669068
vt 0.304641 0.374642
vt 0.338975 0.374642
vt 0.826165 0.605505
vt 0.826165 0.570654
vt 0.608022 0.090900
vt 0.580983 0.090900
vt 0.035093 0.865632
vt 0.069428 0.865632
vt 0.069428 0.956279
vt 0.035093 0.956279
vt 0.069428 0.975065
vt 0.035093 0.975065
vt 0.846685 0.289547
vt 0.827899 0.289547
vt 0.826165 0.916783
vt 0.826165 0.881932
vt 0.338975 0.749031
vt 0.304641 0.749031
vt 0.100122 0.729948
vt 0.196308 0.729948
vt 0.757733 0.806221
vt 0.853919 0.806221
vt 0.099552 0.193779
vt 0.068286 0.193779
vt 0.099552 0.289964
vt 0.068286 0.289964
vt 0.671235 0.134650
vt 0.689226 0.051158
vt 0.655759 0.014184
vt 0.623036 0.127218
vt 0.608528 0.124982
vt 0.647188 0.002593
vt 0.651854 0.131662
vt 0.675106 0.036817
vt 0.079091 0.972842
vt 0.079779 0.865320
vt 0.660852 0.020675
vt 0.644208 0.130483
vt 0.669489 0.030797
vt 0.630919 0.128434
vt 0.069934 0.980273
vt 0.074514 0.976563
vt 0.069934 0.864386
vt 0.075142 0.864880
vt 0.069428 0.204254
vt 0.069428 0.378226
vt 0.035093 0.378226
vt 0.035093 0.204254
vt 0.723098 0.692545
vt 0.723098 0.881932
vt 0.685114 0.916783
vt 0.685114 0.692545
vt 0.513454 0.734622
vt 0.580983 0.734622
vt 0.608022 0.764092
vt 0.513454 0.764092
vt 0.366520 0.654659
vt 0.366520 0.734622
vt 0.339481 0.764092
vt 0.339481 0.654659
vt 0.801951 0.605505
vt 0.723098 0.605505
vt 0.685114 0.570654
vt 0.801951 0.570654
vt 0.304641 0.355856
vt 0.304641 0.294679
vt 0.338975 0.294679
vt 0.338975 0.355856
vt 0.304641 0.227150
vt 0.304641 0.080216
vt 0.338975 0.080216
vt 0.338975 0.227150
vt 0.580983 0.673445
vt 0.608022 0.673445
vt 0.035093 0.109686
vt 0.035093 0.019039
vt 0.069428 0.019039
vt 0.069428 0.109686
vt 0.035093 0.000253
vt 0.069428 0.000253
vt 0.865471 0.289547
vt 0.304641 0.000253
vt 0.338975 0.000253
vt 0.292493 0.729948
vt 0.661547 0.806221
vt 0.068286 0.386150
vt 0.099552 0.386150
vt 0.663242 0.219683
vt 0.620192 0.244860
vt 0.608528 0.253331
vt 0.645458 0.229105
vt 0.099328 0.759589
vt 0.627004 0.240204
vt 0.638289 0.233154
vt 0.091732 0.750568
vt 0.095533 0.755073
s 1
usemtl computer_Stool_material
f 39/71/2 40/72/7 37/73/8 41/74/9
f 46/75/10 49/76/11 54/77/12 45/78/13
f 41/74/9 37/73/8 47/79/14 44/80/15
f 38/81/6 55/82/16 48/83/17 51/84/18
f 61/85/19 57/86/20 42/87/21 46/75/10
f 44/80/15 47/79/14 62/88/22 59/89/23
f 60/90/24 61/85/19 46/75/10 45/78/13
f 37/73/8 40/72/7 43/91/25 47/79/14
f 49/92/11 52/93/26 53/94/27 50/95/28
f 50/95/28 53/94/27 51/84/18 48/83/17
f 54/96/12 49/92/11 50/95/28 56/97/29
f 56/97/29 50/95/28 48/83/17 55/82/16
f 42/87/21 52/98/26 49/76/11 46/75/10
f 57/86/20 61/85/19 62/88/22 58/99/30
f 61/85/19 60/90/24 59/89/23 62/88/22
f 47/79/14 43/91/25 58/99/30 62/88/22
f 39/71/2 41/74/9 85/151/31 86/152/32
f 89/153/33 45/78/13 54/77/12 92/154/34
f 41/74/9 44/80/15 90/155/35 85/151/31
f 38/81/6 94/156/36 91/157/37 55/82/16
f 99/158/38 89/153/33 87/159/39 97/160/40
f 44/80/15 59/89/23 100/161/41 90/155/35
f 60/90/24 45/78/13 89/153/33 99/158/38
f 85/151/31 90/155/35 88/162/42 86/152/32
f 92/163/34 93/164/43 96/165/44 95/166/45
f 93/164/43 91/157/37 94/156/36 96/165/44
f 54/96/12 56/97/29 93/164/43 92/163/34
f 56/97/29 55/82/16 91/157/37 93/164/43
f 87/159/39 89/153/33 92/154/34 95/167/45
f 97/160/40 98/168/46 100/161/41 99/158/38
f 99/158/38 100/161/41 59/89/23 60/90/24
f 90/155/35 100/161/41 98/168/46 88/162/42
f 39/71/2 130/225/47 129/226/48 40/72/7
f 133/227/49 132/228/50 138/229/51 136/230/52
f 130/225/47 131/231/53 134/232/54 129/226/48
f 38/81/6 51/84/18 135/233/55 139/234/56
f 143/235/57 133/227/49 42/87/21 57/86/20
f 131/231/53 141/236/58 144/237/59 134/232/54
f 142/238/60 132/228/50 133/227/49 143/235/57
f 129/226/48 134/232/54 43/91/25 40/72/7
f 136/239/52 137/240/61 53/94/27 52/93/26
f 137/240/61 135/233/55 51/84/18 53/94/27
f 138/241/51 140/242/62 137/240/61 136/239/52
f 140/242/62 139/234/56 135/233/55 137/240/61
f 42/87/21 133/227/49 136/230/52 52/98/26
f 57/86/20 58/99/30 144/237/59 143/235/57
f 143/235/57 144/237/59 141/236/58 142/238/60
f 134/232/54 144/237/59 58/99/30 43/91/25
f 39/71/2 86/152/32 163/286/63 130/225/47
f 164/287/64 167/288/65 138/229/51 132/228/50
f 130/225/47 163/286/63 165/289/66 131/231/53
f 38/81/6 139/234/56 166/290/67 94/156/36
f 169/291/68 97/160/40 87/159/39 164/287/64
f 131/231/53 165/289/66 170/292/69 141/236/58
f 142/238/60 169/291/68 164/287/64 132/228/50
f 163/286/63 86/152/32 88/162/42 165/289/66
f 167/293/65 95/166/45 96/165/44 168/294/70
f 168/294/70 96/165/44 94/156/36 166/290/67
f 138/241/51 167/293/65 168/294/70 140/242/62
f 140/242/62 168/294/70 166/290/67 139/234/56
f 87/159/39 95/167/45 167/288/65 164/287/64
f 97/160/40 169/291/68 170/292/69 98/168/46
f 169/291/68 142/238/60 141/236/58 170/292/69
f 165/289/66 88/162/42 98/168/46 170/292/69
s 0
usemtl Material
f 25/1/1 6/2/1 7/3/1 26/4/1
f 21/5/2 7/3/2 6/2/2 22/6/2
f 27/7/3 2/8/3 6/9/3 25/10/3
f 28/11/4 3/12/4 8/13/4 26/14/4
f 23/15/4 4/16/4 7/17/4 21/18/4
f 15/19/3 1/20/3 5/21/3 11/22/3
f 14/23/2 3/24/2 1/25/2 15/26/2
f 28/27/5 4/28/5 2/29/5 27/30/5
f 19/31/2 14/23/2 15/26/2 20/32/2
f 20/33/3 15/19/3 11/22/3 18/34/3
f 3/12/4 14/35/4 10/36/4 8/13/4
f 10/36/1 14/35/1 9/37/1 13/38/1
f 8/39/6 10/40/6 11/41/6 5/42/6
f 10/40/6 17/43/6 18/44/6 11/41/6
f 14/23/2 19/31/2 12/45/2 9/46/2
f 17/47/6 10/48/6 13/49/6 16/50/6
f 2/8/3 24/51/3 22/52/3 6/9/3
f 4/28/6 23/53/6 24/54/6 2/29/6
f 3/24/5 28/27/5 27/30/5 1/25/5
f 4/16/4 28/11/4 26/14/4 7/17/4
f 1/20/3 27/7/3 25/10/3 5/21/3
f 5/42/1 25/1/1 26/4/1 8/39/1
f 31/55/6 32/56/6 29/57/6 30/58/6
f 36/59/2 34/60/2 33/61/2 35/62/2
f 30/63/5 29/64/5 33/65/5 34/66/5
f 29/67/4 32/68/4 35/69/4 33/70/4
f 77/100/5 78/101/5 69/102/5 68/103/5
f 21/5/2 22/6/2 68/103/2 69/102/2
f 79/104/3 77/105/3 68/106/3 64/107/3
f 80/108/4 78/109/4 70/110/4 65/111/4
f 23/112/4 21/113/4 69/114/4 66/115/4
f 76/116/3 73/117/3 67/118/3 63/119/3
f 75/120/2 76/121/2 63/122/2 65/123/2
f 80/124/1 79/125/1 64/126/1 66/127/1
f 19/31/2 20/32/2 76/121/2 75/120/2
f 20/33/3 18/34/3 73/117/3 76/116/3
f 65/111/4 70/110/4 72/128/4 75/129/4
f 72/128/5 74/130/5 71/131/5 75/129/5
f 70/132/6 67/133/6 73/134/6 72/135/6
f 72/135/6 73/134/6 18/136/6 17/137/6
f 75/120/2 71/138/2 12/45/2 19/31/2
f 17/47/6 16/50/6 74/139/6 72/140/6
f 64/107/3 68/106/3 22/52/3 24/51/3
f 66/127/6 64/126/6 24/141/6 23/142/6
f 65/123/1 63/122/1 79/125/1 80/124/1
f 66/115/4 69/114/4 78/109/4 80/108/4
f 63/119/3 67/118/3 77/105/3 79/104/3
f 67/133/5 70/132/5 78/101/5 77/100/5
f 31/55/6 82/143/6 81/144/6 32/56/6
f 36/59/2 35/62/2 83/145/2 84/146/2
f 82/147/1 84/148/1 83/149/1 81/150/1
f 81/150/4 83/149/4 35/69/4 32/68/4
f 121/169/1 122/170/1 107/171/1 106/172/1
f 117/173/2 118/174/2 106/172/2 107/171/2
f 123/175/4 121/176/4 106/177/4 102/178/4
f 124/179/3 122/180/3 108/181/3 103/182/3
f 119/183/3 117/184/3 107/185/3 104/186/3
f 112/187/4 110/188/4 105/189/4 101/190/4
f 111/191/2 112/192/2 101/193/2 103/194/2
f 124/195/5 123/196/5 102/197/5 104/198/5
f 115/199/2 116/200/2 112/192/2 111/191/2
f 116/201/4 114/202/4 110/188/4 112/187/4
f 103/182/3 108/181/3 109/203/3 111/204/3
f 109/203/1 13/38/1 9/37/1 111/204/1
f 108/205/6 105/206/6 110/207/6 109/208/6
f 109/208/6 110/207/6 114/209/6 113/210/6
f 111/191/2 9/46/2 12/45/2 115/199/2
f 113/211/6 16/50/6 13/49/6 109/212/6
f 102/178/4 106/177/4 118/213/4 120/214/4
f 104/198/6 102/197/6 120/215/6 119/216/6
f 103/194/5 101/193/5 123/196/5 124/195/5
f 104/186/3 107/185/3 122/180/3 124/179/3
f 101/190/4 105/189/4 121/176/4 123/175/4
f 105/206/1 108/205/1 122/170/1 121/169/1
f 31/55/6 30/58/6 125/217/6 126/218/6
f 36/59/2 128/219/2 127/220/2 34/60/2
f 30/63/5 34/66/5 127/221/5 125/222/5
f 125/222/3 127/221/3 128/223/3 126/224/3
f 157/243/5 150/244/5 151/245/5 158/246/5
f 117/173/2 151/245/2 150/244/2 118/174/2
f 159/247/4 146/248/4 150/249/4 157/250/4
f 160/251/3 147/252/3 152/253/3 158/254/3
f 119/255/3 148/256/3 151/257/3 117/258/3
f 156/259/4 145/260/4 149/261/4 154/262/4
f 155/263/2 147/264/2 145/265/2 156/266/2
f 160/267/1 148/268/1 146/269/1 159/270/1
f 115/199/2 155/263/2 156/266/2 116/200/2
f 116/201/4 156/259/4 154/262/4 114/202/4
f 147/252/3 155/271/3 153/272/3 152/253/3
f 153/272/5 155/271/5 71/131/5 74/130/5
f 152/273/6 153/274/6 154/275/6 149/276/6
f 153/274/6 113/277/6 114/278/6 154/275/6
f 155/263/2 115/199/2 12/45/2 71/138/2
f 113/211/6 153/279/6 74/139/6 16/50/6
f 146/248/4 120/214/4 118/213/4 150/249/4
f 148/268/6 119/280/6 120/281/6 146/269/6
f 147/264/1 160/267/1 159/270/1 145/265/1
f 148/256/3 160/251/3 158/254/3 151/257/3
f 145/260/4 159/247/4 157/250/4 149/261/4
f 149/276/5 157/243/5 158/246/5 152/273/5
f 31/55/6 126/218/6 161/282/6 82/143/6
f 36/59/2 84/146/2 162/283/2 128/219/2
f 82/147/1 161/284/1 162/285/1 84/148/1
f 161/284/3 126/224/3 128/223/3 162/285/3
