# Blender 3.6.1
# www.blender.org
mtllib Keyboard_01.mtl
g Keyboard.003_Cube.034
v -0.175110 -0.005601 0.281753
v -0.175110 0.067129 0.281753
v -0.175110 -0.005601 -0.296154
v -0.175110 0.067129 -0.296154
v 0.006604 -0.005601 0.281753
v 0.006604 0.031032 0.281753
v 0.006604 -0.005601 -0.296154
v 0.006604 0.031032 -0.296154
v -0.162813 0.064686 0.271104
v -0.162813 0.064686 -0.285506
v -0.005693 0.033475 -0.285506
v -0.005693 0.033475 0.271104
v -0.014506 0.028083 -0.280613
v -0.157207 0.056430 -0.280613
v -0.157207 0.056430 0.261297
v -0.014506 0.028083 0.261297
vn -1.0000 -0.0000 -0.0000
vn -0.0000 -0.0000 -1.0000
vn 1.0000 -0.0000 -0.0000
vn -0.0000 -0.0000 1.0000
vn -0.0000 -1.0000 -0.0000
vn 0.1948 0.9808 -0.0000
vn 0.1116 0.5616 0.8198
vn 0.8273 0.5618 -0.0000
vn 0.1585 0.7981 -0.5812
vn -0.5219 0.8530 -0.0000
vt 0.375000 0.000000
vt 0.625000 0.000000
vt 0.625000 0.250000
vt 0.375000 0.250000
vt 0.625000 0.500000
vt 0.375000 0.500000
vt 0.625000 0.750000
vt 0.375000 0.750000
vt 0.625000 1.000000
vt 0.375000 1.000000
vt 0.125000 0.500000
vt 0.125000 0.750000
vt 0.636471 0.503301
vt 0.863529 0.503301
vt 0.863529 0.746699
vt 0.636471 0.746699
vt 0.875000 0.500000
vt 0.875000 0.750000
s 0
f 1/1/1 2/2/1 4/3/1 3/4/1
f 3/4/2 4/3/2 8/5/2 7/6/2
f 7/6/3 8/5/3 6/7/3 5/8/3
f 5/8/4 6/7/4 2/9/4 1/10/4
f 3/11/5 7/6/5 5/8/5 1/12/5
f 8/5/6 4/3/6 10/3/6 11/5/6
f 13/13/6 14/14/6 15/15/6 16/16/6
f 6/7/6 8/5/6 11/5/6 12/7/6
f 4/3/6 2/2/6 9/2/6 10/3/6
f 2/9/6 6/7/6 12/7/6 9/9/6
f 11/5/7 10/17/7 14/14/7 13/13/7
f 10/17/8 9/18/8 15/15/8 14/14/8
f 9/18/9 12/7/9 16/16/9 15/15/9
f 12/7/10 11/5/10 13/13/10 16/16/10
