# Blender v2.93.9 OBJ File: 'Modular building.blend'
# www.blender.org
mtllib Modular_Wall_01.mtl
o B1_bottom_windowq_Plane.008
v -0.000059 3.505075 0.047302
v -0.000059 2.817932 0.047302
v -0.000059 0.493865 0.047302
v 0.184386 2.537963 0.047302
v 0.184386 0.558397 0.047302
v 0.231433 2.491108 0.001903
v 0.231433 0.605251 0.001903
v 0.155780 3.433938 0.047302
v 0.155780 2.889069 0.047302
v 0.120955 0.373338 0.111188
v 0.120955 0.067970 0.111188
v -0.000059 0.493865 0.111188
v -0.000059 0.493865 0.144932
v -0.000059 0.438442 0.144932
v -0.000059 0.438442 0.111188
v -0.000059 0.002866 0.111188
v 0.181908 0.332101 0.083094
v 0.181908 0.109207 0.083094
v 0.238072 0.313094 0.126302
v 0.238072 0.128214 0.126302
v 0.202826 3.387083 0.001903
v 0.202826 2.935924 0.001903
v 0.184386 2.537963 0.001903
v 0.184386 0.558397 0.001903
v 0.155780 3.433938 0.001903
v 0.155780 2.889069 0.001903
v 0.231433 2.491108 -0.048080
v 0.231433 0.605251 -0.048080
v 0.202826 3.387083 -0.048080
v 0.202826 2.935924 -0.048080
v 3.250059 3.505075 0.047302
v 3.250059 2.817932 0.047302
v 3.250059 0.493865 0.047302
v 3.065614 2.537963 0.047302
v 3.065614 0.558397 0.047302
v 3.018568 2.491108 0.001903
v 3.018568 0.605251 0.001903
v 3.094221 3.433938 0.047302
v 3.094221 2.889069 0.047302
v 1.625000 3.433938 0.047302
v 1.625000 2.817932 0.047302
v 1.625000 0.493865 0.047302
v 1.625000 2.537963 0.047302
v 1.625000 0.558397 0.047302
v 1.625000 2.491108 0.001903
v 1.625000 0.605251 0.001903
v 1.625000 3.505075 0.047302
v 1.625000 2.889069 0.047302
v 3.129045 0.373338 0.111188
v 3.129045 0.067970 0.111188
v 1.625000 0.067970 0.111188
v 1.625000 0.493865 0.111188
v 3.250059 0.493865 0.111188
v 1.625000 0.438442 0.111188
v 1.625000 0.493865 0.144932
v 3.250059 0.493865 0.144932
v 1.625000 0.438442 0.144932
v 3.250059 0.438442 0.144932
v 3.250059 0.438442 0.111188
v 3.250059 0.002866 0.111188
v 1.625000 0.002866 0.111188
v 1.625000 0.373338 0.111188
v 1.625000 0.109207 0.083094
v 1.625000 0.332101 0.083094
v 3.068092 0.332101 0.083094
v 3.068092 0.109207 0.083094
v 1.625000 0.128214 0.126302
v 1.625000 0.313094 0.126302
v 3.011929 0.313094 0.126302
v 3.011929 0.128214 0.126302
v 1.625000 3.387083 0.001903
v 3.047174 3.387083 0.001903
v 3.047174 2.935924 0.001903
v 1.625000 2.935924 0.001903
v 3.065614 2.537963 0.001903
v 3.065614 0.558397 0.001903
v 1.625000 2.537963 0.001903
v 1.625000 0.558397 0.001903
v 1.625000 3.433938 0.001903
v 3.094221 3.433938 0.001903
v 3.094221 2.889069 0.001903
v 1.625000 2.889069 0.001903
v 1.625000 0.605251 -0.048080
v 1.625000 2.491108 -0.048080
v 1.625000 2.935924 -0.048080
v 1.625000 3.387083 -0.048080
v 3.018568 2.491108 -0.048080
v 3.018568 0.605251 -0.048080
v 3.047174 3.387083 -0.048080
v 3.047174 2.935924 -0.048080
vt 0.067295 0.961727
vt 0.067295 0.842071
vt 0.067295 0.842071
vt 0.067295 0.961727
vt 0.118498 0.207591
vt 0.118498 0.736403
vt 0.000000 0.803797
vt 0.000000 0.140197
vt 0.500000 0.207591
vt 0.500000 0.140197
vt 0.500000 0.736403
vt 0.118498 0.736403
vt 0.500000 0.736403
vt 0.118498 0.207591
vt 0.000000 1.000000
vt 0.500000 0.842071
vt 0.500000 0.803797
vt 0.500000 0.961727
vt 0.500000 1.000000
vt 0.500000 0.207591
vt 0.500000 0.117567
vt 0.027213 0.117567
vt 0.027213 0.117567
vt 0.500000 0.117567
vt 0.000000 0.140197
vt 0.500000 0.140197
vt 0.000000 0.134277
vt 0.500000 0.134277
vt 0.500000 0.140197
vt 0.000000 0.140197
vt 0.000000 0.134277
vt 0.500000 0.134277
vt 0.027213 0.016709
vt 0.000000 0.000000
vt 0.500000 0.016709
vt 0.500000 0.000000
vt 0.027213 0.016709
vt 0.500000 0.016709
vt 0.500000 0.016709
vt 0.027213 0.016709
vt 0.027213 0.117567
vt 0.500000 0.117567
vt 0.140506 0.220108
vt 0.500000 0.220108
vt 0.500000 0.220108
vt 0.140506 0.220108
vt 0.500000 0.842071
vt 0.500000 0.961727
vt 0.140506 0.723887
vt 0.500000 0.723887
vt 0.091411 0.951437
vt 0.500000 0.951437
vt 0.091411 0.852360
vt 0.500000 0.852360
vt 0.500000 0.723887
vt 0.140506 0.723887
vt 0.091411 0.852360
vt 0.500000 0.852360
vt 0.500000 0.951437
vt 0.091411 0.951437
vt 0.067295 0.961727
vt 0.067295 0.961727
vt 0.067295 0.842071
vt 0.067295 0.842071
vt 0.118498 0.207591
vt 0.000000 0.140197
vt 0.000000 0.803797
vt 0.118498 0.736403
vt 0.118498 0.736403
vt 0.118498 0.207591
vt 0.000000 1.000000
vt 0.027213 0.117567
vt 0.027213 0.117567
vt 0.000000 0.140197
vt 0.000000 0.134277
vt 0.000000 0.140197
vt 0.000000 0.134277
vt 0.027213 0.016709
vt 0.000000 0.000000
vt 0.027213 0.016709
vt 0.027213 0.016709
vt 0.027213 0.117567
vt 0.140506 0.220108
vt 0.140506 0.220108
vt 0.140506 0.723887
vt 0.091411 0.951437
vt 0.091411 0.852360
vt 0.140506 0.723887
vt 0.091411 0.852360
vt 0.091411 0.951437
vn 1.0000 0.0000 0.0000
vn 0.0000 -0.0000 1.0000
vn 0.0000 -1.0000 0.0000
vn 0.0000 1.0000 0.0000
vn 0.0000 -0.5630 0.8264
vn 0.0000 -0.9154 0.4027
vn 0.0000 0.9154 0.4027
vn 0.0000 0.5630 0.8264
vn 0.4186 -0.0000 0.9082
vn -0.6098 -0.0000 0.7926
vn -1.0000 0.0000 0.0000
vn -0.4186 0.0000 0.9082
vn 0.6098 0.0000 0.7926
usemtl None
s off
f 8/1/1 9/2/1 26/3/1 25/4/1
f 5/5/2 4/6/2 2/7/2 3/8/2
f 44/9/2 5/5/2 3/8/2 42/10/2
f 43/11/3 4/6/3 23/12/3 77/13/3
f 4/6/1 5/5/1 24/14/1 23/12/1
f 9/2/2 8/1/2 1/15/2 2/7/2
f 48/16/2 9/2/2 2/7/2 41/17/2
f 8/1/2 40/18/2 47/19/2 1/15/2
f 4/6/2 43/11/2 41/17/2 2/7/2
f 5/5/4 44/9/4 78/20/4 24/14/4
f 62/21/5 10/22/5 17/23/5 64/24/5
f 42/10/4 3/8/4 12/25/4 52/26/4
f 14/27/2 57/28/2 55/29/2 13/30/2
f 52/26/4 12/25/4 13/30/4 55/29/4
f 15/31/3 54/32/3 57/28/3 14/27/3
f 11/33/2 10/22/2 15/31/2 16/34/2
f 51/35/2 11/33/2 16/34/2 61/36/2
f 10/22/2 62/21/2 54/32/2 15/31/2
f 18/37/6 63/38/6 67/39/6 20/40/6
f 64/24/7 17/23/7 19/41/7 68/42/7
f 11/33/8 51/35/8 63/38/8 18/37/8
f 10/22/9 11/33/9 18/37/9 17/23/9
f 20/40/2 67/39/2 68/42/2 19/41/2
f 17/23/10 18/37/10 20/40/10 19/41/10
f 7/43/4 46/44/4 83/45/4 28/46/4
f 9/2/4 48/16/4 82/47/4 26/3/4
f 40/18/3 8/1/3 25/4/3 79/48/3
f 7/43/2 6/49/2 23/12/2 24/14/2
f 6/49/2 45/50/2 77/13/2 23/12/2
f 46/44/2 7/43/2 24/14/2 78/20/2
f 21/51/2 71/52/2 79/48/2 25/4/2
f 22/53/2 21/51/2 25/4/2 26/3/2
f 74/54/2 22/53/2 26/3/2 82/47/2
f 28/46/2 83/45/2 84/55/2 27/56/2
f 30/57/2 85/58/2 86/59/2 29/60/2
f 71/52/3 21/51/3 29/60/3 86/59/3
f 6/49/1 7/43/1 28/46/1 27/56/1
f 21/51/1 22/53/1 30/57/1 29/60/1
f 45/50/3 6/49/3 27/56/3 84/55/3
f 22/53/4 74/54/4 85/58/4 30/57/4
f 38/61/11 80/62/11 81/63/11 39/64/11
f 35/65/2 33/66/2 32/67/2 34/68/2
f 44/9/2 42/10/2 33/66/2 35/65/2
f 43/11/3 77/13/3 75/69/3 34/68/3
f 34/68/11 75/69/11 76/70/11 35/65/11
f 39/64/2 32/67/2 31/71/2 38/61/2
f 48/16/2 41/17/2 32/67/2 39/64/2
f 38/61/2 31/71/2 47/19/2 40/18/2
f 34/68/2 32/67/2 41/17/2 43/11/2
f 35/65/4 76/70/4 78/20/4 44/9/4
f 62/21/5 64/24/5 65/72/5 49/73/5
f 42/10/4 52/26/4 53/74/4 33/66/4
f 58/75/2 56/76/2 55/29/2 57/28/2
f 52/26/4 55/29/4 56/76/4 53/74/4
f 59/77/3 58/75/3 57/28/3 54/32/3
f 50/78/2 60/79/2 59/77/2 49/73/2
f 51/35/2 61/36/2 60/79/2 50/78/2
f 49/73/2 59/77/2 54/32/2 62/21/2
f 66/80/6 70/81/6 67/39/6 63/38/6
f 64/24/7 68/42/7 69/82/7 65/72/7
f 50/78/8 66/80/8 63/38/8 51/35/8
f 49/73/12 65/72/12 66/80/12 50/78/12
f 70/81/2 69/82/2 68/42/2 67/39/2
f 65/72/13 69/82/13 70/81/13 66/80/13
f 37/83/4 88/84/4 83/45/4 46/44/4
f 39/64/4 81/63/4 82/47/4 48/16/4
f 40/18/3 79/48/3 80/62/3 38/61/3
f 37/83/2 76/70/2 75/69/2 36/85/2
f 36/85/2 75/69/2 77/13/2 45/50/2
f 46/44/2 78/20/2 76/70/2 37/83/2
f 72/86/2 80/62/2 79/48/2 71/52/2
f 73/87/2 81/63/2 80/62/2 72/86/2
f 74/54/2 82/47/2 81/63/2 73/87/2
f 88/84/2 87/88/2 84/55/2 83/45/2
f 90/89/2 89/90/2 86/59/2 85/58/2
f 71/52/3 86/59/3 89/90/3 72/86/3
f 36/85/11 87/88/11 88/84/11 37/83/11
f 72/86/11 89/90/11 90/89/11 73/87/11
f 45/50/3 84/55/3 87/88/3 36/85/3
f 73/87/4 90/89/4 85/58/4 74/54/4
