# Blender 3.6.1
# www.blender.org
mtllib Monitor_01.mtl
g monitor.004_Cube.032
v -0.036347 0.708344 0.374296
v 0.008117 0.708344 0.374296
v 0.008117 0.688605 0.354556
v 0.000000 0.688605 0.354556
v -0.036347 0.403760 -0.077093
v -0.036347 0.403760 0.077093
v -0.036347 0.536363 0.077093
v -0.036347 0.536363 -0.077093
v -0.046290 0.403760 -0.077093
v -0.046290 0.403760 0.077093
v -0.046290 0.536363 0.077093
v -0.046290 0.536363 -0.077093
v -0.046290 0.412265 -0.067203
v -0.046290 0.412265 0.067203
v -0.046290 0.527858 0.067203
v -0.046290 0.527858 -0.067203
v -0.036347 0.708344 0.000000
v 0.008117 0.708344 0.000000
v 0.008117 0.688605 0.000000
v 0.000000 0.688605 0.000000
v -0.036347 0.403760 0.000000
v -0.036347 0.536363 0.000000
v -0.046290 0.403760 0.000000
v -0.046290 0.536363 0.000000
v -0.046290 0.412265 0.000000
v -0.046290 0.527858 0.000000
v -0.036347 0.470061 0.374296
v 0.008117 0.470061 0.374296
v 0.008117 0.470061 0.354556
v 0.000000 0.470061 0.354556
v -0.036347 0.470061 0.077093
v -0.036347 0.470061 -0.077093
v -0.046290 0.470061 0.077093
v -0.046290 0.470061 -0.077093
v -0.046290 0.470061 0.067203
v -0.046290 0.470061 -0.067203
v 0.000000 0.470061 0.000000
v -0.093340 0.470061 -0.054849
v -0.046286 0.470061 -0.054849
v -0.093340 0.431277 -0.038784
v -0.046286 0.431277 -0.038784
v -0.093340 0.415212 0.000000
v -0.046286 0.415212 0.000000
v -0.093340 0.431277 0.038784
v -0.046286 0.431277 0.038784
v -0.093340 0.470061 0.054849
v -0.046286 0.470061 0.054849
v -0.093340 0.508845 0.038784
v -0.046286 0.508845 0.038784
v -0.093340 0.524910 0.000000
v -0.046286 0.524910 0.000000
v -0.093340 0.508845 -0.038784
v -0.046286 0.508845 -0.038784
v -0.036347 0.708344 -0.374296
v 0.008117 0.708344 -0.374296
v 0.008117 0.688605 -0.354556
v 0.000000 0.688605 -0.354556
v -0.036347 0.403760 0.077093
v -0.036347 0.403760 -0.077093
v -0.036347 0.536363 -0.077093
v -0.036347 0.536363 0.077093
v -0.046290 0.403760 0.077093
v -0.046290 0.403760 -0.077093
v -0.046290 0.536363 -0.077093
v -0.046290 0.536363 0.077093
v -0.046290 0.412265 0.067203
v -0.046290 0.412265 -0.067203
v -0.046290 0.527858 -0.067203
v -0.046290 0.527858 0.067203
v -0.036347 0.470061 -0.374296
v 0.008117 0.470061 -0.374296
v 0.008117 0.470061 -0.354556
v 0.000000 0.470061 -0.354556
v -0.036347 0.470061 -0.077093
v -0.036347 0.470061 0.077093
v -0.046290 0.470061 -0.077093
v -0.046290 0.470061 0.077093
v -0.046290 0.470061 -0.067203
v -0.046290 0.470061 0.067203
v -0.093340 0.470061 0.054849
v -0.046286 0.470061 0.054849
v -0.093340 0.431277 0.038784
v -0.046286 0.431277 0.038784
v -0.093340 0.431277 -0.038784
v -0.046286 0.431277 -0.038784
v -0.093340 0.470061 -0.054849
v -0.046286 0.470061 -0.054849
v -0.093340 0.508845 -0.038784
v -0.046286 0.508845 -0.038784
v -0.093340 0.508845 0.038784
v -0.046286 0.508845 0.038784
v -0.036347 0.231778 0.374296
v 0.008117 0.231778 0.374296
v 0.008117 0.251518 0.354556
v 0.000000 0.251518 0.354556
v -0.036347 0.536363 -0.077093
v -0.036347 0.536363 0.077093
v -0.036347 0.403760 0.077093
v -0.036347 0.403760 -0.077093
v -0.046290 0.536363 -0.077093
v -0.046290 0.536363 0.077093
v -0.046290 0.403760 0.077093
v -0.046290 0.403760 -0.077093
v -0.046290 0.527858 -0.067203
v -0.046290 0.527858 0.067203
v -0.046290 0.412265 0.067203
v -0.046290 0.412265 -0.067203
v -0.036347 0.231778 0.000000
v 0.008117 0.231778 0.000000
v 0.008117 0.251518 0.000000
v 0.000000 0.251518 0.000000
v -0.036347 0.536363 0.000000
v -0.036347 0.403760 0.000000
v -0.046290 0.536363 0.000000
v -0.046290 0.403760 0.000000
v -0.046290 0.527858 0.000000
v -0.046290 0.412265 0.000000
v -0.093340 0.508845 -0.038784
v -0.046286 0.508845 -0.038784
v -0.093340 0.524910 0.000000
v -0.046286 0.524910 0.000000
v -0.093340 0.508845 0.038784
v -0.046286 0.508845 0.038784
v -0.093340 0.431277 0.038784
v -0.046286 0.431277 0.038784
v -0.093340 0.415212 0.000000
v -0.046286 0.415212 0.000000
v -0.093340 0.431277 -0.038784
v -0.046286 0.431277 -0.038784
v -0.036347 0.231778 -0.374296
v 0.008117 0.231778 -0.374296
v 0.008117 0.251518 -0.354556
v 0.000000 0.251518 -0.354556
v -0.036347 0.536363 0.077093
v -0.036347 0.536363 -0.077093
v -0.036347 0.403760 -0.077093
v -0.036347 0.403760 0.077093
v -0.046290 0.536363 0.077093
v -0.046290 0.536363 -0.077093
v -0.046290 0.403760 -0.077093
v -0.046290 0.403760 0.077093
v -0.046290 0.527858 0.067203
v -0.046290 0.527858 -0.067203
v -0.046290 0.412265 -0.067203
v -0.046290 0.412265 0.067203
v -0.093340 0.508845 0.038784
v -0.046286 0.508845 0.038784
v -0.093340 0.508845 -0.038784
v -0.046286 0.508845 -0.038784
v -0.093340 0.431277 -0.038784
v -0.046286 0.431277 -0.038784
v -0.093340 0.431277 0.038784
v -0.046286 0.431277 0.038784
v -0.052195 0.515531 0.043591
v -0.047653 0.515531 0.039058
v -0.052195 0.509696 0.046008
v -0.047653 0.506491 0.042802
v -0.052195 0.507280 0.051843
v -0.047653 0.502746 0.051843
v -0.052195 0.509696 0.057678
v -0.047653 0.506491 0.060884
v -0.052195 0.515531 0.060095
v -0.047653 0.515531 0.064628
v -0.052195 0.521366 0.057678
v -0.047653 0.524572 0.060884
v -0.052195 0.523783 0.051843
v -0.047653 0.528316 0.051843
v -0.052195 0.521366 0.046008
v -0.047653 0.524572 0.042802
v -0.053958 0.515531 0.047338
v -0.053958 0.512346 0.048657
v -0.053958 0.511026 0.051843
v -0.053958 0.512346 0.055029
v -0.053958 0.515531 0.056348
v -0.053958 0.518717 0.055029
v -0.053958 0.520036 0.051843
v -0.053958 0.518717 0.048657
v -0.053958 0.515531 0.051843
v -0.045227 0.515531 0.051843
v -0.066006 0.541995 -0.073877
v -0.066006 0.037498 -0.073877
v -0.066006 0.541995 0.072607
v -0.066006 0.037498 0.072607
v -0.134815 0.541995 -0.073877
v -0.134815 0.037498 -0.073877
v -0.134815 0.541995 0.072607
v -0.134815 0.037498 0.072607
v -0.134815 0.008229 0.072607
v -0.066006 0.008229 0.072607
v -0.066006 0.008229 -0.073877
v -0.134815 0.008229 -0.073877
v -0.199917 0.040473 0.104184
v 0.106566 0.040473 0.104184
v 0.106566 0.040473 -0.105454
v -0.199917 0.040473 -0.105454
v -0.199917 0.005255 0.104184
v 0.106566 0.005255 0.104184
v 0.106566 0.005255 -0.105454
v -0.199917 0.005255 -0.105454
vn -0.0000 -0.0000 1.0000
vn -0.0000 1.0000 -0.0000
vn 1.0000 -0.0000 -0.0000
vn -0.0000 -1.0000 -0.0000
vn -0.0000 -0.0000 -1.0000
vn -1.0000 -0.0000 -0.0000
vn -1.0000 -0.0003 -0.0000
vn -1.0000 -0.0000 0.0002
vn -0.0000 -0.3827 -0.9239
vn -0.0000 -0.9239 -0.3827
vn -0.0000 -0.9239 0.3827
vn -0.0000 -0.3827 0.9239
vn -0.0000 0.3827 0.9239
vn -0.0000 0.9239 0.3827
vn -1.0000 0.0003 -0.0000
vn -0.0000 0.9239 -0.3827
vn -0.0000 0.3827 -0.9239
vn -1.0000 -0.0000 -0.0002
vn -0.6779 -0.2813 -0.6792
vn -0.6779 -0.6792 -0.2813
vn -0.6779 -0.6792 0.2813
vn -0.6779 -0.2813 0.6792
vn -0.6779 0.2813 0.6792
vn -0.6779 0.6792 0.2813
vn -0.6779 0.6792 -0.2813
vn -0.6779 0.2813 -0.6792
vn 0.9825 -0.1864 -0.0000
vn -0.8911 0.4193 -0.1737
vn -0.8911 -0.4193 -0.1737
vn -0.8911 0.1737 0.4193
vn -0.8911 0.1737 -0.4193
vn -0.8911 -0.1737 -0.4193
vn -0.8911 -0.4193 0.1737
vn -0.8911 0.4193 0.1737
vn -0.8911 -0.1737 0.4193
vn 0.9825 -0.0000 -0.1864
vn 0.9825 -0.0000 0.1864
vn 0.9825 0.1864 -0.0000
vn 0.0456 0.9990 -0.0000
vn -0.0172 -0.9999 -0.0000
vn -0.0172 0.9999 -0.0000
vn 0.0456 -0.9990 -0.0000
vn -0.0000 0.9956 0.0938
vn -0.0000 -0.9956 0.0938
vn -0.0000 -0.9956 -0.0938
vn -0.0000 0.9956 -0.0938
vt 0.500000 0.750000
vt 0.625000 0.750000
vt 0.625000 1.000000
vt 0.500000 1.000000
vt 0.625000 0.625000
vt 0.875000 0.625000
vt 0.875000 0.750000
vt 0.610544 0.741520
vt 0.610544 0.625000
vt 0.500000 0.625000
vt 0.500000 0.741520
vt 0.500000 0.250000
vt 0.375000 0.250000
vt 0.875000 0.500000
vt 0.125000 0.625000
vt 0.125000 0.750000
vt 0.250000 1.000000
vt 0.375000 1.000000
vt 0.125000 0.500000
vt 0.125000 1.000000
vt 0.000000 1.000000
vt 0.625000 0.250000
vt 0.875000 1.000000
vt 1.000000 1.000000
vt 1.000000 0.500000
vt 0.750000 1.000000
vt 0.750000 0.500000
vt 0.625000 0.500000
vt 0.500000 0.500000
vt 0.375000 0.500000
vt 0.250000 0.500000
vt 0.000000 0.500000
vt 0.750000 0.490000
vt 0.919706 0.419706
vt 0.990000 0.250000
vt 0.919706 0.080294
vt 0.750000 0.010000
vt 0.580294 0.080294
vt 0.510000 0.250000
vt 0.580294 0.419706
vt 0.499999 0.500000
vt 0.375000 0.000000
vt 0.625000 0.000000
vt 0.375000 0.750000
s 0
usemtl Material.006
f 28/1/1 2/2/1 1/3/1 27/4/1
f 18/5/2 17/6/2 1/7/2 2/2/2
f 18/5/3 2/2/3 3/8/3 19/9/3
f 37/10/3 20/9/3 4/8/3 30/11/3
f 19/9/4 3/8/4 4/8/4 20/9/4
f 32/12/5 5/13/5 9/13/5 34/12/5
f 27/4/6 1/3/6 7/3/6 31/4/6
f 24/6/6 12/14/6 16/14/6 26/6/6
f 31/4/1 7/3/1 11/3/1 33/4/1
f 22/6/2 8/14/2 12/14/2 24/6/2
f 21/15/4 6/16/4 10/16/4 23/15/4
f 51/17/7 49/18/7 15/7/7 26/6/7
f 23/15/6 10/16/6 14/16/6 25/15/6
f 34/12/6 9/13/6 13/13/6 36/12/6
f 33/4/6 11/3/6 15/3/6 35/4/6
f 9/19/6 23/15/6 25/15/6 13/19/6
f 53/20/7 51/17/7 26/6/7 16/14/7
f 5/19/4 21/15/4 23/15/4 9/19/4
f 7/7/2 22/6/2 24/6/2 11/7/2
f 11/7/6 24/6/6 26/6/6 15/7/6
f 1/7/6 17/6/6 22/6/6 7/7/6
f 39/21/8 53/20/8 16/22/8 36/12/8
f 10/18/6 33/4/6 35/4/6 14/18/6
f 12/22/6 34/12/6 36/12/6 16/22/6
f 41/23/8 39/24/8 36/12/8 13/13/8
f 6/18/1 31/4/1 33/4/1 10/18/1
f 8/22/5 32/12/5 34/12/5 12/22/5
f 2/2/3 28/1/3 29/11/3 3/8/3
f 3/8/5 29/11/5 30/11/5 4/8/5
f 38/25/9 39/24/9 41/23/9 40/14/9
f 40/14/10 41/23/10 43/26/10 42/27/10
f 42/27/11 43/26/11 45/3/11 44/28/11
f 44/28/12 45/3/12 47/4/12 46/29/12
f 46/29/13 47/4/13 49/18/13 48/30/13
f 48/30/14 49/18/14 51/17/14 50/31/14
f 43/26/15 41/23/15 13/19/15 25/15/15
f 50/31/16 51/17/16 53/20/16 52/19/16
f 52/19/17 53/20/17 39/21/17 38/32/17
f 38/33/6 40/34/6 42/35/6 44/36/6 46/37/6 48/38/6 50/39/6 52/40/6
f 49/18/18 47/4/18 35/4/18 15/3/18
f 47/4/18 45/3/18 14/18/18 35/4/18
f 45/3/15 43/26/15 25/15/15 14/16/15
f 71/1/5 70/4/5 54/3/5 55/2/5
f 18/5/2 55/2/2 54/7/2 17/6/2
f 18/5/3 19/9/3 56/8/3 55/2/3
f 37/10/3 73/11/3 57/8/3 20/9/3
f 19/9/4 20/9/4 57/8/4 56/8/4
f 75/12/1 77/12/1 62/13/1 58/13/1
f 70/4/6 74/4/6 60/3/6 54/3/6
f 24/6/6 26/6/6 69/14/6 65/14/6
f 74/4/5 76/4/5 64/3/5 60/3/5
f 22/6/2 24/6/2 65/14/2 61/14/2
f 21/15/4 23/15/4 63/16/4 59/16/4
f 51/17/7 26/6/7 68/7/7 89/18/7
f 23/15/6 25/15/6 67/16/6 63/16/6
f 77/12/6 79/12/6 66/13/6 62/13/6
f 76/4/6 78/4/6 68/3/6 64/3/6
f 62/19/6 66/19/6 25/15/6 23/15/6
f 91/20/7 69/14/7 26/6/7 51/17/7
f 58/19/4 62/19/4 23/15/4 21/15/4
f 60/7/2 64/7/2 24/6/2 22/6/2
f 64/7/6 68/7/6 26/6/6 24/6/6
f 54/7/6 60/7/6 22/6/6 17/6/6
f 81/21/18 79/12/18 69/22/18 91/20/18
f 63/18/6 67/18/6 78/4/6 76/4/6
f 65/22/6 69/22/6 79/12/6 77/12/6
f 83/23/18 66/13/18 79/12/18 81/24/18
f 59/18/5 63/18/5 76/4/5 74/4/5
f 61/22/1 65/22/1 77/12/1 75/12/1
f 55/2/3 56/8/3 72/11/3 71/1/3
f 56/8/1 57/8/1 73/11/1 72/11/1
f 80/25/12 82/14/12 83/23/12 81/24/12
f 82/14/11 42/27/11 43/26/11 83/23/11
f 42/27/10 84/28/10 85/3/10 43/26/10
f 84/28/9 86/29/9 87/4/9 85/3/9
f 86/29/17 88/30/17 89/18/17 87/4/17
f 88/30/16 50/31/16 51/17/16 89/18/16
f 43/26/15 25/15/15 66/19/15 83/23/15
f 50/31/14 90/19/14 91/20/14 51/17/14
f 90/19/13 80/32/13 81/21/13 91/20/13
f 80/33/6 90/40/6 50/39/6 88/38/6 86/37/6 84/36/6 42/35/6 82/34/6
f 89/18/8 68/3/8 78/4/8 87/4/8
f 87/4/8 78/4/8 67/18/8 85/3/8
f 85/3/15 67/16/15 25/15/15 43/26/15
f 28/1/1 27/4/1 92/3/1 93/2/1
f 109/5/4 93/2/4 92/7/4 108/6/4
f 109/5/3 110/9/3 94/8/3 93/2/3
f 37/10/3 30/11/3 95/8/3 111/9/3
f 110/9/2 111/9/2 95/8/2 94/8/2
f 32/12/5 34/12/5 100/13/5 96/13/5
f 27/4/6 31/4/6 98/3/6 92/3/6
f 115/6/6 117/6/6 107/14/6 103/14/6
f 31/4/1 33/4/1 102/3/1 98/3/1
f 113/6/4 115/6/4 103/14/4 99/14/4
f 112/15/2 114/15/2 101/16/2 97/16/2
f 127/17/15 117/6/15 106/7/15 125/18/15
f 114/15/6 116/15/6 105/16/6 101/16/6
f 34/12/6 36/12/6 104/13/6 100/13/6
f 33/4/6 35/4/6 106/3/6 102/3/6
f 100/19/6 104/19/6 116/15/6 114/15/6
f 129/20/15 107/14/15 117/6/15 127/17/15
f 96/19/2 100/19/2 114/15/2 112/15/2
f 98/7/4 102/7/4 115/6/4 113/6/4
f 102/7/6 106/7/6 117/6/6 115/6/6
f 92/7/6 98/7/6 113/6/6 108/6/6
f 39/21/8 36/12/8 107/22/8 129/20/8
f 101/18/6 105/18/6 35/4/6 33/4/6
f 103/22/6 107/22/6 36/12/6 34/12/6
f 119/23/8 104/13/8 36/12/8 39/24/8
f 97/18/1 101/18/1 33/4/1 31/4/1
f 99/22/5 103/22/5 34/12/5 32/12/5
f 93/2/3 94/8/3 29/11/3 28/1/3
f 94/8/5 95/8/5 30/11/5 29/11/5
f 38/25/17 118/14/17 119/23/17 39/24/17
f 118/14/16 120/27/16 121/26/16 119/23/16
f 120/27/14 122/28/14 123/3/14 121/26/14
f 122/28/13 46/29/13 47/4/13 123/3/13
f 46/29/12 124/30/12 125/18/12 47/4/12
f 124/30/11 126/31/11 127/17/11 125/18/11
f 121/26/7 116/15/7 104/19/7 119/23/7
f 126/31/10 128/19/10 129/20/10 127/17/10
f 128/19/9 38/32/9 39/21/9 129/20/9
f 38/33/6 128/40/6 126/39/6 124/38/6 46/37/6 122/36/6 120/35/6 118/34/6
f 125/18/18 106/3/18 35/4/18 47/4/18
f 47/4/18 35/4/18 105/18/18 123/3/18
f 123/3/7 105/16/7 116/15/7 121/26/7
f 71/1/5 131/2/5 130/3/5 70/4/5
f 109/5/4 108/6/4 130/7/4 131/2/4
f 109/5/3 131/2/3 132/8/3 110/9/3
f 37/10/3 111/9/3 133/8/3 73/11/3
f 110/9/2 132/8/2 133/8/2 111/9/2
f 75/12/1 134/13/1 138/13/1 77/12/1
f 70/4/6 130/3/6 136/3/6 74/4/6
f 115/6/6 141/14/6 145/14/6 117/6/6
f 74/4/5 136/3/5 140/3/5 76/4/5
f 113/6/4 137/14/4 141/14/4 115/6/4
f 112/15/2 135/16/2 139/16/2 114/15/2
f 127/17/15 151/18/15 144/7/15 117/6/15
f 114/15/6 139/16/6 143/16/6 116/15/6
f 77/12/6 138/13/6 142/13/6 79/12/6
f 76/4/6 140/3/6 144/3/6 78/4/6
f 138/19/6 114/15/6 116/15/6 142/19/6
f 153/20/15 127/17/15 117/6/15 145/14/15
f 134/19/2 112/15/2 114/15/2 138/19/2
f 136/7/4 113/6/4 115/6/4 140/7/4
f 140/7/6 115/6/6 117/6/6 144/7/6
f 130/7/6 108/6/6 113/6/6 136/7/6
f 81/21/18 153/20/18 145/22/18 79/12/18
f 139/18/6 76/4/6 78/4/6 143/18/6
f 141/22/6 77/12/6 79/12/6 145/22/6
f 147/23/18 81/24/18 79/12/18 142/13/18
f 135/18/5 74/4/5 76/4/5 139/18/5
f 137/22/1 75/12/1 77/12/1 141/22/1
f 131/2/3 71/1/3 72/11/3 132/8/3
f 132/8/1 72/11/1 73/11/1 133/8/1
f 80/25/13 81/24/13 147/23/13 146/14/13
f 146/14/14 147/23/14 121/26/14 120/27/14
f 120/27/16 121/26/16 149/3/16 148/28/16
f 148/28/17 149/3/17 87/4/17 86/29/17
f 86/29/9 87/4/9 151/18/9 150/30/9
f 150/30/10 151/18/10 127/17/10 126/31/10
f 121/26/7 147/23/7 142/19/7 116/15/7
f 126/31/11 127/17/11 153/20/11 152/19/11
f 152/19/12 153/20/12 81/21/12 80/32/12
f 80/33/6 146/34/6 120/35/6 148/36/6 86/37/6 150/38/6 126/39/6 152/40/6
f 151/18/8 87/4/8 78/4/8 144/3/8
f 87/4/8 149/3/8 143/18/8 78/4/8
f 149/3/7 121/26/7 116/15/7 143/16/7
f 154/25/19 155/24/19 157/23/19 156/14/19
f 156/14/20 157/23/20 159/26/20 158/27/20
f 158/27/21 159/26/21 161/3/21 160/28/21
f 160/28/22 161/3/22 163/4/22 162/29/22
f 162/29/23 163/4/23 165/18/23 164/30/23
f 164/30/24 165/18/24 167/17/24 166/31/24
f 166/31/25 167/17/25 169/20/25 168/19/25
f 168/19/26 169/20/26 155/21/26 154/32/26
f 159/26/27 157/23/27 179/4/27 161/3/27
f 166/31/28 168/19/28 177/19/28 176/31/28
f 170/32/6 178/41/6 176/31/6 177/19/6
f 156/14/29 158/27/29 172/27/29 171/14/29
f 162/29/30 164/30/30 175/30/30 174/29/30
f 168/19/31 154/32/31 170/32/31 177/19/31
f 154/25/32 156/14/32 171/14/32 170/25/32
f 158/27/33 160/28/33 173/28/33 172/27/33
f 164/30/34 166/31/34 176/31/34 175/30/34
f 160/28/35 162/29/35 174/29/35 173/28/35
f 157/23/36 155/24/36 169/20/36 179/4/36
f 176/31/6 178/41/6 174/29/6 175/30/6
f 174/29/6 178/41/6 172/27/6 173/28/6
f 178/41/6 170/32/6 171/14/6 172/27/6
f 161/3/37 179/4/37 165/18/37 163/4/37
f 179/4/38 169/20/38 167/17/38 165/18/38
f 180/42/2 184/43/2 186/22/2 182/13/2
f 187/28/39 185/2/39 195/2/39 192/28/39
f 183/30/1 182/28/1 186/2/1 187/44/1
f 181/44/3 180/2/3 182/3/3 183/18/3
f 185/19/5 184/30/5 180/44/5 181/16/5
f 187/28/6 186/14/6 184/7/6 185/2/6
f 191/13/4 190/22/4 189/28/4 188/30/4
f 189/28/40 190/22/40 198/22/40 197/28/40
f 181/44/41 183/18/41 193/18/41 194/44/41
f 191/13/42 188/30/42 196/30/42 199/13/42
f 195/19/5 194/16/5 198/16/5 199/19/5
f 193/30/1 192/44/1 196/44/1 197/30/1
f 194/44/3 193/18/3 197/18/3 198/44/3
f 192/28/6 195/2/6 199/2/6 196/28/6
f 185/19/43 181/16/43 194/16/43 195/19/43
f 190/22/44 191/13/44 199/13/44 198/22/44
f 188/30/45 189/28/45 197/28/45 196/30/45
f 183/30/46 187/44/46 192/44/46 193/30/46
