# Blender 3.6.1
# www.blender.org
mtllib Mouse_01.mtl
g mouse.002_Cube.031
v -0.090577 0.022380 0.050186
v -0.076498 0.058495 0.039466
v -0.090583 0.022211 -0.050142
v -0.076405 0.057755 -0.039665
v 0.083135 0.018796 0.049661
v 0.064562 0.043095 0.036893
v 0.082289 0.018088 -0.050476
v 0.061493 0.040500 -0.041538
v -0.009566 0.020811 -0.071688
v -0.009666 0.057123 -0.051945
v -0.009331 0.021618 0.069224
v -0.008650 0.059307 0.047708
v -0.104360 0.024201 0.001560
v -0.083795 0.069730 0.001242
v 0.111527 0.017865 0.000277
v 0.073391 0.044388 -0.003886
v -0.008677 0.073510 -0.001239
v -0.101446 -0.001768 0.001017
v -0.091606 -0.001319 0.051582
v -0.009167 -0.001768 -0.071660
v -0.091606 -0.001319 -0.052487
v 0.111341 -0.001768 0.001017
v 0.085443 -0.001319 -0.052487
v -0.009167 -0.001768 0.068597
v 0.085443 -0.001319 0.051582
v -0.006013 -0.002666 0.000658
v -0.103172 0.023478 0.028241
v -0.085359 0.042612 0.045349
v -0.082249 0.065529 -0.022492
v -0.085357 0.042114 -0.045245
v -0.057119 0.021529 -0.066035
v 0.032524 0.048744 -0.048503
v 0.073378 0.030226 -0.046300
v 0.104975 0.017705 -0.027047
v 0.071795 0.044452 0.019802
v 0.075724 0.032202 0.043764
v 0.041581 0.020274 0.064141
v -0.050792 0.061356 0.045139
v 0.040960 0.019403 -0.066093
v -0.050632 0.060199 -0.047628
v -0.057075 0.022029 0.064331
v 0.035421 0.051394 0.043619
v -0.008507 0.070594 0.025530
v -0.092390 0.007780 0.051978
v -0.009003 0.040809 0.061937
v -0.009697 0.038750 -0.064841
v -0.103172 0.023457 -0.026142
v -0.082252 0.066006 0.024003
v 0.105554 0.018097 0.027206
v 0.069555 0.042564 -0.026187
v -0.009171 0.068636 -0.028499
v -0.105638 0.008008 0.001330
v 0.116527 0.007216 0.001170
v 0.035684 0.060490 -0.003195
v -0.051469 0.077913 0.000331
v 0.085944 0.007332 0.051912
v 0.098251 0.030032 -0.002095
v -0.099536 0.048246 0.001591
v -0.100734 -0.001768 0.029552
v -0.058493 -0.001768 -0.066152
v 0.104872 -0.001768 -0.028563
v 0.043879 -0.001768 0.063755
v 0.043879 -0.001768 -0.066152
v -0.058493 -0.001768 0.063755
v -0.007070 -0.002666 0.036670
v -0.100734 -0.001768 -0.028563
v 0.104872 -0.001768 0.029552
v -0.007070 -0.002666 -0.036844
v -0.058097 -0.002666 0.000768
v 0.053434 -0.002666 0.000768
v -0.092390 0.007759 -0.052369
v 0.085838 0.007244 -0.052411
v -0.009436 0.007685 0.071717
v -0.009465 0.007584 -0.074546
v -0.097820 0.045933 -0.023648
v 0.036635 0.034341 -0.059825
v 0.094195 0.030569 0.022826
v -0.053961 0.042005 0.057695
v 0.109696 0.007196 -0.027597
v -0.050947 0.073913 0.025194
v 0.035689 0.059107 0.022331
v -0.104744 0.007915 -0.027484
v 0.038525 0.036637 0.057060
v -0.054003 0.040778 -0.059597
v -0.104744 0.007917 0.029132
v 0.033877 0.056921 -0.028046
v -0.050983 0.072749 -0.025574
v 0.109768 0.007245 0.029003
v 0.092561 0.029407 -0.026270
v -0.097816 0.046047 0.025818
v 0.050485 -0.002666 0.034370
v -0.058528 -0.002666 0.034370
v -0.058528 -0.002666 -0.034180
v 0.050485 -0.002666 -0.034180
v -0.058338 0.007736 0.066634
v 0.042809 0.007408 -0.068762
v 0.042887 0.007517 0.066610
v -0.058344 0.007674 -0.068755
vn -0.9740 0.2166 -0.0659
vn -0.7870 0.6025 -0.1326
vn -0.6718 0.5601 -0.4847
vn -0.8246 0.2905 -0.4854
vn 0.1233 0.3821 -0.9159
vn 0.1615 0.5994 -0.7840
vn 0.3343 0.6571 -0.6757
vn 0.3362 0.4775 -0.8118
vn 0.6850 0.7183 0.1219
vn 0.5087 0.8596 0.0485
vn 0.4960 0.8034 0.3294
vn 0.5831 0.6277 0.5157
vn -0.0864 0.3404 0.9363
vn -0.0420 0.5798 0.8137
vn -0.2759 0.5180 0.8097
vn -0.3535 0.3237 0.8777
vn 0.6787 0.3387 -0.6517
vn 0.8891 0.4050 -0.2134
vn 0.8615 -0.4683 -0.1962
vn 0.7346 -0.1799 -0.6542
vn 0.0913 0.9872 0.1310
vn -0.2425 0.9559 0.1655
vn -0.2185 0.8329 0.5085
vn 0.0383 0.8696 0.4923
vn 0.3858 0.9219 0.0372
vn 0.2701 0.9597 0.0780
vn 0.2282 0.8913 0.3918
vn 0.3537 0.8924 0.2801
vn -0.9951 0.0912 -0.0380
vn -0.8785 0.1528 -0.4526
vn -0.8956 -0.2037 -0.3954
vn -0.9218 -0.3868 -0.0247
vn 0.3246 0.4716 0.8199
vn 0.3271 0.6917 0.6438
vn 0.1580 0.6393 0.7526
vn 0.1142 0.3797 0.9180
vn -0.3904 0.3318 -0.8588
vn -0.3212 0.5117 -0.7969
vn -0.0602 0.5524 -0.8314
vn -0.1006 0.3419 -0.9344
vn -0.8634 0.1400 0.4848
vn -0.9952 0.0901 0.0394
vn -0.9213 -0.3881 0.0256
vn -0.8785 -0.2236 0.4221
vn 0.3514 0.8717 -0.3417
vn 0.2272 0.8850 -0.4064
vn 0.2659 0.9497 -0.1656
vn 0.3810 0.9123 -0.1499
vn 0.0358 0.8834 -0.4673
vn -0.2357 0.8472 -0.4762
vn -0.2424 0.9515 -0.1894
vn 0.0887 0.9788 -0.1848
vn 0.8901 0.4071 0.2050
vn 0.6638 0.3306 0.6709
vn 0.7037 -0.2066 0.6798
vn 0.8565 -0.4754 0.2012
vn 0.5721 0.6226 -0.5339
vn 0.4744 0.7877 -0.3930
vn 0.4969 0.8553 -0.1469
vn 0.6763 0.7164 -0.1717
vn -0.8058 0.2869 0.5181
vn -0.6535 0.5557 0.5139
vn -0.7878 0.6019 0.1306
vn -0.9740 0.2162 0.0681
vn -0.0000 -1.0000 -0.0000
vn 0.0161 -0.9999 0.0024
vn 0.0205 -0.9991 0.0366
vn 0.0019 -0.9996 0.0296
vn -0.0210 -0.9998 0.0001
vn -0.0021 -0.9996 0.0292
vn -0.0248 -0.9992 0.0306
vn -0.0251 -0.9993 -0.0282
vn -0.0022 -0.9996 -0.0268
vn -0.0210 -0.9998 -0.0001
vn 0.0020 -0.9996 -0.0272
vn 0.0208 -0.9992 -0.0338
vn 0.0161 -0.9999 -0.0024
vn -0.1003 0.1714 0.9801
vn -0.3857 0.1696 0.9069
vn -0.3664 -0.1733 0.9142
vn -0.0960 -0.3009 0.9488
vn 0.1107 0.2209 -0.9690
vn 0.3459 0.2633 -0.9006
vn 0.3323 -0.1210 -0.9354
vn 0.1020 -0.2761 -0.9557
vn 0.3211 0.2334 0.9178
vn 0.0992 0.1862 0.9775
vn 0.0893 -0.2972 0.9506
vn 0.2993 -0.1589 0.9408
vn -0.4208 0.1997 -0.8849
vn -0.1137 0.2050 -0.9721
vn -0.1100 -0.2795 -0.9538
vn -0.4056 -0.1353 -0.9040
vt 0.426256 0.121252
vt 0.537571 0.120732
vt 0.527046 0.184545
vt 0.423559 0.184806
vt 0.711300 0.118209
vt 0.668150 0.184105
vt 0.625000 0.250000
vt 0.511501 0.249075
vt 0.419064 0.249063
vt 0.416667 0.375000
vt 0.505208 0.375000
vt 0.505543 0.437594
vt 0.416824 0.437612
vt 0.625000 0.375000
vt 0.625000 0.437500
vt 0.625000 0.500000
vt 0.507928 0.500823
vt 0.417928 0.500898
vt 0.421713 0.628592
vt 0.517112 0.628592
vt 0.513348 0.690063
vt 0.420294 0.690082
vt 0.624352 0.628592
vt 0.619859 0.689988
vt 0.625000 0.750000
vt 0.507928 0.750823
vt 0.417928 0.750898
vt 0.416667 0.875000
vt 0.505208 0.875000
vt 0.504340 0.937500
vt 0.413194 0.937500
vt 0.625000 0.875000
vt 0.625000 0.937500
vt 0.625000 1.000000
vt 0.500000 1.000000
vt 0.375000 1.000000
vt 0.420294 0.565082
vt 0.380662 0.565063
vt 0.380366 0.500823
vt 0.380839 0.628592
vt 0.369243 0.628592
vt 0.369243 0.564980
vt 0.375000 0.500000
vt 0.749411 0.628592
vt 0.794113 0.628742
vt 0.800475 0.690007
vt 0.749595 0.689970
vt 0.824286 0.630388
vt 0.849643 0.690194
vt 0.875000 0.750000
vt 0.812500 0.750000
vt 0.750000 0.750000
vt 0.698700 0.628592
vt 0.694820 0.689970
vt 0.687500 0.750000
vt 0.381070 0.184886
vt 0.381407 0.121239
vt 0.380508 0.249172
vt 0.375000 0.250000
vt 0.375000 0.184806
vt 0.375000 0.119612
vt 0.505543 0.812594
vt 0.416824 0.812612
vt 0.625000 0.812500
vt 0.505845 0.312396
vt 0.416966 0.312383
vt 0.625000 0.312500
vt 0.375000 0.000000
vt 0.419787 0.059923
vt 0.380164 0.059980
vt 0.375000 0.000000
vt 0.375000 0.059806
vt 0.375000 0.000000
vt 0.687500 0.500000
vt 0.694820 0.564969
vt 0.619859 0.564988
vt 0.750000 0.500000
vt 0.749595 0.564970
vt 0.812500 0.500000
vt 0.800475 0.565007
vt 0.875000 0.500000
vt 0.849643 0.565194
vt 0.380662 0.690063
vt 0.380366 0.750823
vt 0.375000 0.750000
vt 0.369243 0.689980
vt 0.513348 0.565063
vt 0.500000 0.000000
vt 0.525541 0.059648
vt 0.625000 0.000000
vt 0.668150 0.059105
vt 0.250000 0.628592
vt 0.312500 0.628592
vt 0.312500 0.689970
vt 0.250000 0.689970
vt 0.312500 0.750000
vt 0.250000 0.750000
vt 0.125000 0.630388
vt 0.187500 0.628742
vt 0.187500 0.690007
vt 0.125000 0.690194
vt 0.187500 0.750000
vt 0.125000 0.750000
vt 0.125000 0.500000
vt 0.187500 0.500000
vt 0.187500 0.565007
vt 0.125000 0.565194
vt 0.250000 0.500000
vt 0.250000 0.564970
vt 0.312500 0.500000
vt 0.312500 0.564970
vt 0.379340 0.937500
vt 0.380208 0.875000
vt 0.375000 1.000000
vt 0.375000 1.000000
vt 0.375000 0.937500
vt 0.375000 0.875000
vt 0.380228 0.437594
vt 0.380208 0.375000
vt 0.375000 0.437500
vt 0.375000 0.375000
vt 0.380228 0.812594
vt 0.375000 0.812500
vt 0.380246 0.312406
vt 0.375000 0.312500
s 0
f 13/1/1 58/2/1 75/3/1 47/4/1
f 58/2/2 14/5/2 29/6/2 75/3/2
f 75/3/3 29/6/3 4/7/3 30/8/3
f 47/4/4 75/3/4 30/8/4 3/9/4
f 9/10/5 46/11/5 76/12/5 39/13/5
f 46/11/6 10/14/6 32/15/6 76/12/6
f 76/12/7 32/15/7 8/16/7 33/17/7
f 39/13/8 76/12/8 33/17/8 7/18/8
f 15/19/9 57/20/9 77/21/9 49/22/9
f 57/20/10 16/23/10 35/24/10 77/21/10
f 77/21/11 35/24/11 6/25/11 36/26/11
f 49/22/12 77/21/12 36/26/12 5/27/12
f 11/28/13 45/29/13 78/30/13 41/31/13
f 45/29/14 12/32/14 38/33/14 78/30/14
f 78/30/15 38/33/15 2/34/15 28/35/15
f 41/31/16 78/30/16 28/35/16 1/36/16
f 7/18/17 34/37/17 79/38/17 72/39/17
f 34/37/18 15/19/18 53/40/18 79/38/18
f 79/38/19 53/40/19 22/41/19 61/42/19
f 72/39/20 79/38/20 61/42/20 23/43/20
f 17/44/21 55/45/21 80/46/21 43/47/21
f 55/45/22 14/48/22 48/49/22 80/46/22
f 80/46/23 48/49/23 2/50/23 38/51/23
f 43/47/24 80/46/24 38/51/24 12/52/24
f 16/23/25 54/53/25 81/54/25 35/24/25
f 54/53/26 17/44/26 43/47/26 81/54/26
f 81/54/27 43/47/27 12/52/27 42/55/27
f 35/24/28 81/54/28 42/55/28 6/25/28
f 13/1/29 47/4/29 82/56/29 52/57/29
f 47/4/30 3/9/30 71/58/30 82/56/30
f 82/56/31 71/58/31 21/59/31 66/60/31
f 52/57/32 82/56/32 66/60/32 18/61/32
f 5/27/33 36/26/33 83/62/33 37/63/33
f 36/26/34 6/25/34 42/64/34 83/62/34
f 83/62/35 42/64/35 12/32/35 45/29/35
f 37/63/36 83/62/36 45/29/36 11/28/36
f 3/9/37 30/8/37 84/65/37 31/66/37
f 30/8/38 4/7/38 40/67/38 84/65/38
f 84/65/39 40/67/39 10/14/39 46/11/39
f 31/66/40 84/65/40 46/11/40 9/10/40
f 1/68/41 27/69/41 85/70/41 44/71/41
f 27/69/42 13/1/42 52/57/42 85/70/42
f 85/70/43 52/57/43 18/61/43 59/72/43
f 44/71/44 85/70/44 59/72/44 19/73/44
f 8/16/45 32/74/45 86/75/45 50/76/45
f 32/74/46 10/77/46 51/78/46 86/75/46
f 86/75/47 51/78/47 17/44/47 54/53/47
f 50/76/48 86/75/48 54/53/48 16/23/48
f 10/77/49 40/79/49 87/80/49 51/78/49
f 40/79/50 4/81/50 29/82/50 87/80/50
f 87/80/51 29/82/51 14/48/51 55/45/51
f 51/78/52 87/80/52 55/45/52 17/44/52
f 15/19/53 49/22/53 88/83/53 53/40/53
f 49/22/54 5/27/54 56/84/54 88/83/54
f 88/83/55 56/84/55 25/85/55 67/86/55
f 53/40/56 88/83/56 67/86/56 22/41/56
f 7/18/57 33/17/57 89/87/57 34/37/57
f 33/17/58 8/16/58 50/76/58 89/87/58
f 89/87/59 50/76/59 16/23/59 57/20/59
f 34/37/60 89/87/60 57/20/60 15/19/60
f 1/68/61 28/88/61 90/89/61 27/69/61
f 28/88/62 2/90/62 48/91/62 90/89/62
f 90/89/63 48/91/63 14/5/63 58/2/63
f 27/69/64 90/89/64 58/2/64 13/1/64
f 26/92/65 70/93/65 91/94/65 65/95/65
f 70/93/66 22/41/66 67/86/66 91/94/66
f 91/94/67 67/86/67 25/85/67 62/96/67
f 65/95/68 91/94/68 62/96/68 24/97/68
f 18/98/69 69/99/69 92/100/69 59/101/69
f 69/99/65 26/92/65 65/95/65 92/100/65
f 92/100/70 65/95/70 24/97/70 64/102/70
f 59/101/71 92/100/71 64/102/71 19/103/71
f 21/104/72 60/105/72 93/106/72 66/107/72
f 60/105/73 20/108/73 68/109/73 93/106/73
f 93/106/65 68/109/65 26/92/65 69/99/65
f 66/107/74 93/106/74 69/99/74 18/98/74
f 20/108/75 63/110/75 94/111/75 68/109/75
f 63/110/76 23/43/76 61/42/76 94/111/76
f 94/111/77 61/42/77 22/41/77 70/93/77
f 68/109/65 94/111/65 70/93/65 26/92/65
f 11/28/78 41/31/78 95/112/78 73/113/78
f 41/31/79 1/36/79 44/114/79 95/112/79
f 95/112/80 44/114/80 19/115/80 64/116/80
f 73/113/81 95/112/81 64/116/81 24/117/81
f 9/10/82 39/13/82 96/118/82 74/119/82
f 39/13/83 7/18/83 72/39/83 96/118/83
f 96/118/84 72/39/84 23/43/84 63/120/84
f 74/119/85 96/118/85 63/120/85 20/121/85
f 5/27/86 37/63/86 97/122/86 56/84/86
f 37/63/87 11/28/87 73/113/87 97/122/87
f 97/122/88 73/113/88 24/117/88 62/123/88
f 56/84/89 97/122/89 62/123/89 25/85/89
f 3/9/90 31/66/90 98/124/90 71/58/90
f 31/66/91 9/10/91 74/119/91 98/124/91
f 98/124/92 74/119/92 20/121/92 60/125/92
f 71/58/93 98/124/93 60/125/93 21/59/93
